<svg xmlns="http://www.w3.org/2000/svg" width="1920" height="1080" viewBox="0 0 1920 1080">
  <defs>
    <style>
      .cls-1 {
        fill: #f3f5f6;
      }

      .cls-2 {
        isolation: isolate;
      }

      .cls-3 {
        fill: #ed6d47;
      }

      .cls-4 {
        fill: #8795a2;
      }

      .cls-5 {
        fill: #c4cbd2;
      }

      .cls-6 {
        fill: #8795a3;
      }
    </style>
  </defs>
  <title>shot_34</title>
  <g id="Layer_3" data-name="Layer 3">
    <rect class="cls-1" width="1920" height="1080"/>
    <g class="cls-2">
      <path class="cls-3" d="M863.7,602.35a113.47,113.47,0,0,0,10.7,13.52L886.1,605a96.08,96.08,0,0,1-9.17-11.61Z"/>
      <path class="cls-3" d="M956.72,635.82a95.71,95.71,0,0,1-47.43-12.5l-8,13.9a112.48,112.48,0,0,0,99.75,5.53L994.67,628A95.53,95.53,0,0,1,956.72,635.82Z"/>
      <path class="cls-3" d="M827.18,536.58l25.57,25.64,25.65-25.64-11.35-11.36-6.22,6.22a96.17,96.17,0,1,1,158.82,80.9l10.49,12.12a112.18,112.18,0,1,0-185.33-92.94l-6.25-6.28Z"/>
      <path class="cls-4" d="M897.25,825.25,853,781h47.66l71,71H924.32c-16.9,0-33.25,13.6-35.62,30.33A35.53,35.53,0,0,0,923.84,923h17.82l35,35H924.49c-38.37,0-71-31.38-71.48-69.74C852.66,859.06,866.79,835.47,897.25,825.25Z"/>
      <path class="cls-5" d="M1021.08,913.75,1065.33,958h-47.67l-71-71h47.83a35.5,35.5,0,0,0,0-71H976.67l-35-35h52.18c38.37,0,71,31.38,71.48,69.74C1065.68,879.94,1051.54,903.53,1021.08,913.75Z"/>
      <path class="cls-6" d="M858.18,135.82a3.1,3.1,0,0,1,.09-.61C858.25,135.41,858.2,135.61,858.18,135.82Z"/>
      <path class="cls-5" d="M874.74,149H1026V137.81A16.87,16.87,0,0,0,1009.19,121H874.74a16.86,16.86,0,0,0-16.59,14A16.86,16.86,0,0,0,874.74,149Z"/>
      <path class="cls-6" d="M858.1,136.51a4.52,4.52,0,0,1,.06-.53Z"/>
      <path class="cls-6" d="M858.05,137.24a1.89,1.89,0,0,1,0-.41C858.07,137,858.06,137.09,858.05,137.24Z"/>
      <path class="cls-5" d="M1019,219.07a35,35,0,0,0,35,35v-70A35,35,0,0,0,1019,219.07Z"/>
      <path class="cls-4" d="M1037.28,149H874.83s-15.18-5.72-16.58-13.8a1.14,1.14,0,0,1-.25.61V136a.57.57,0,0,1,.1.52c0,.18,0,.22,0,.33s.9.41.9.41V272.17A16.83,16.83,0,0,0,875.72,289h161.56A16.83,16.83,0,0,0,1054,272.17V254.08A34.71,34.71,0,0,1,1029.09,244a35.25,35.25,0,0,1,0-49.9A34.75,34.75,0,0,1,1054,183.94V165.83A16.83,16.83,0,0,0,1037.28,149Z"/>
      <path class="cls-5" d="M974.66,540.16a31.85,31.85,0,1,0-38.58,0,72.75,72.75,0,0,0-38,25.3,63.77,63.77,0,0,0,114.58,0A72.84,72.84,0,0,0,974.66,540.16Z"/>
      <path class="cls-4" d="M1000.43,582.59a63.77,63.77,0,0,1-102.34-17.13,72.8,72.8,0,0,1,38-25.3,31.85,31.85,0,1,1,38.58,0,72.84,72.84,0,0,1,38,25.3A64,64,0,0,1,1000.43,582.59Zm-45-117.83a72.8,72.8,0,1,0,72.8,72.8A72.8,72.8,0,0,0,955.38,464.76Z"/>
    </g>
  </g>
</svg>
