<svg xmlns="http://www.w3.org/2000/svg" width="1920" height="1080" viewBox="0 0 1920 1080">
  <defs>
    <style>
      .cls-1 {
        fill: #f9fafa;
      }

      .cls-2 {
        fill: #c4cbd2;
      }

      .cls-3 {
        fill: #8795a2;
      }
    </style>
  </defs>
  <title>shot_1</title>
  <g id="Layer_2" data-name="Layer 2">
    <rect class="cls-1" width="1920" height="1080"/>
  </g>
  <g id="Layer_1" data-name="Layer 1">
    <path class="cls-2" d="M1023.22,585.16l45.16,45.16h-48.77l-72.26-72.26h48.78a36.13,36.13,0,0,0,0-72.25H978.06l-36.12-36.13h54.19a72.26,72.26,0,0,1,72.25,72.26C1068.38,551.24,1053.93,574.86,1023.22,585.16Z"/>
  </g>
  <g id="Layer_3" data-name="Layer 3">
    <path class="cls-3" d="M896.78,494.84l-45.16-45.16h48.77l72.26,72.26H923.87a36.13,36.13,0,0,0,0,72.25h18.07l36.12,36.13H923.87a72.24,72.24,0,0,1-72.25-72.26C851.62,528.76,866.07,505.14,896.78,494.84Z"/>
  </g>
</svg>
