<svg xmlns="http://www.w3.org/2000/svg" xmlns:xlink="http://www.w3.org/1999/xlink" width="1920" height="1080" viewBox="0 0 1920 1080">
  <defs>
    <style>
      .cls-1 {
        fill: none;
      }

      .cls-2 {
        clip-path: url(#clip-path);
      }

      .cls-3 {
        fill: #f3f5f6;
      }

      .cls-4 {
        isolation: isolate;
      }

      .cls-5 {
        fill: #ed6d47;
      }

      .cls-6 {
        fill: #c4cbd2;
      }

      .cls-7 {
        fill: #8896a3;
      }

      .cls-8 {
        fill: #41be53;
      }

      .cls-9 {
        clip-path: url(#clip-path-3);
      }

      .cls-10 {
        fill: #8795a2;
      }

      .cls-11 {
        clip-path: url(#clip-path-5);
      }

      .cls-12 {
        clip-path: url(#clip-path-7);
      }

      .cls-13 {
        clip-path: url(#clip-path-9);
      }

      .cls-14 {
        clip-path: url(#clip-path-11);
      }

      .cls-15 {
        clip-path: url(#clip-path-12);
      }
    </style>
    <clipPath id="clip-path">
      <rect class="cls-1" width="1920" height="1080"/>
    </clipPath>
    <clipPath id="clip-path-3">
      <rect class="cls-1" x="1183.72" y="625.1" width="191.16" height="191.21"/>
    </clipPath>
    <clipPath id="clip-path-5">
      <rect class="cls-1" x="543.02" y="625.1" width="191.16" height="191.21"/>
    </clipPath>
    <clipPath id="clip-path-7">
      <rect class="cls-1" x="224.77" y="625.1" width="191.16" height="191.21"/>
    </clipPath>
    <clipPath id="clip-path-9">
      <rect class="cls-1" y="625.1" width="93.48" height="191.21"/>
    </clipPath>
    <clipPath id="clip-path-11">
      <rect class="cls-1" y="625.1" width="93.48" height="13.66"/>
    </clipPath>
    <clipPath id="clip-path-12">
      <rect class="cls-1" y="637.7" width="93.48" height="43.07"/>
    </clipPath>
  </defs>
  <title>shot_24</title>
  <g id="Layer_3" data-name="Layer 3">
    <g class="cls-2">
      <g class="cls-2">
        <rect class="cls-3" width="1920" height="1080"/>
      </g>
    </g>
    <g class="cls-4">
      <path class="cls-5" d="M1136.63,579.92h90.15l2.58,0,14.82-22.09h-21.6v10.51h-20.23a19.53,19.53,0,0,0-32,0h-20.24V557.86h-7l-14.06,21Z"/>
      <path class="cls-6" d="M1186.31,507.46a21.61,21.61,0,1,1-21.61,21.6A21.61,21.61,0,0,1,1186.31,507.46Zm-16,60.91a19.31,19.31,0,0,1,32,0h20.23V478h-16.8v.11a19.18,19.18,0,0,1-5.61,13.76,19.59,19.59,0,0,1-27.65,0,19.18,19.18,0,0,1-5.61-13.76V478h-16.8v90.35Z"/>
      <ellipse class="cls-7" cx="1186.31" cy="529.07" rx="21.61" ry="21.62"/>
      <path class="cls-5" d="M1320.87,579.92h90.77l2.58,0L1429,557.86h-22.65v10.51h-20.23a19.53,19.53,0,0,0-32,0h-20.24V557.86h-7l-14.06,21Z"/>
      <path class="cls-6" d="M1370.55,507.46a21.61,21.61,0,1,1-21.61,21.6A21.6,21.6,0,0,1,1370.55,507.46Zm-16.39,60.91a19.31,19.31,0,0,1,32,0h20.23V478h-16.81v.11a19.13,19.13,0,0,1-5.6,13.76,19.59,19.59,0,0,1-27.65,0,19.14,19.14,0,0,1-5.61-13.76V478h-16.8v90.35Z"/>
      <path class="cls-7" d="M1385.83,513.78a21.62,21.62,0,1,1-30.56,0A21.63,21.63,0,0,1,1385.83,513.78Z"/>
      <path class="cls-8" d="M1229.55,478h90.71V477l2.47,0L1336.84,456H1315v10.51h-20.23a19.53,19.53,0,0,0-32,0h-20.24V454.9h-7.35L1220.43,477Z"/>
      <path class="cls-6" d="M1279.23,404.9a21.62,21.62,0,1,1-21.6,21.6A21.61,21.61,0,0,1,1279.23,404.9Zm-16.45,61.56a19.32,19.32,0,0,1,32,0H1315V376.11h-16.8v.12A19.15,19.15,0,0,1,1292.6,390a19.57,19.57,0,0,1-27.65,0,19.15,19.15,0,0,1-5.61-13.75v-.12h-16.8v90.35Z"/>
      <ellipse class="cls-7" cx="1279.23" cy="426.51" rx="21.61" ry="21.61"/>
      <path class="cls-5" d="M1135,373h90.7l2.58,0,14.83-22.1h-22.66V361.4h-20.23a19.53,19.53,0,0,0-32,0H1148V350.89h-7l-14.06,21Z"/>
      <path class="cls-6" d="M1184.71,300.73a21.62,21.62,0,1,1-21.61,21.61A21.6,21.6,0,0,1,1184.71,300.73Zm-16.46,61.72a19.32,19.32,0,0,1,32,0h20.23V272.1h-16.8v.16a19.07,19.07,0,0,1-1.07,6.53,19.55,19.55,0,0,1-32.19,7.19,19.19,19.19,0,0,1-5.61-13.76v-.12H1148v90.35Z"/>
      <path class="cls-7" d="M1200,307.07a21.61,21.61,0,1,1-30.56,0A21.63,21.63,0,0,1,1200,307.07Z"/>
      <path class="cls-5" d="M1320.87,373h90.77l2.58,0,14.83-22.1h-22.66V361.4h-20.23a19.53,19.53,0,0,0-32,0h-20.24V350.89h-7l-14.06,21Z"/>
      <path class="cls-6" d="M1370.55,300.73a21.62,21.62,0,1,1-21.61,21.61A21.61,21.61,0,0,1,1370.55,300.73Zm-16.39,61.72a19.32,19.32,0,0,1,32,0h20.23V272.1h-16.81v.12A19.14,19.14,0,0,1,1384,286a19.59,19.59,0,0,1-27.65,0,19.15,19.15,0,0,1-5.61-13.76v-.12h-16.8v90.35Z"/>
      <path class="cls-7" d="M1385.83,307.07a21.61,21.61,0,1,1-30.56,0A21.61,21.61,0,0,1,1385.83,307.07Z"/>
      <rect class="cls-5" x="864.42" y="693.39" width="89.28" height="11.56"/>
      <polygon class="cls-6" points="953.7 734.98 953.7 704.94 864.42 704.94 864.42 746.97 953.7 746.97 953.7 734.98"/>
      <rect class="cls-5" x="965.25" y="693.39" width="88.23" height="11.56"/>
      <polygon class="cls-6" points="1053.48 734.98 1053.48 704.94 965.25 704.94 965.25 746.97 1053.48 746.97 1053.48 734.98"/>
      <rect class="cls-5" x="864.42" y="761.67" width="89.28" height="11.56"/>
      <polygon class="cls-6" points="864.42 803.18 864.42 815.25 953.7 815.25 953.7 773.23 864.42 773.23 864.42 803.18"/>
      <rect class="cls-5" x="965.25" y="761.67" width="88.23" height="11.56"/>
      <polygon class="cls-6" points="1053.48 803.18 1053.48 773.23 965.25 773.23 965.25 815.25 1053.48 815.25 1053.48 803.18"/>
      <rect class="cls-5" x="864.42" y="626.15" width="189.06" height="11.56"/>
      <polygon class="cls-6" points="1053.48 667.01 1053.48 637.7 864.42 637.7 864.42 678.68 1053.48 678.68 1053.48 667.01"/>
      <circle class="cls-7" cx="1121.83" cy="720.08" r="6.22"/>
      <path class="cls-7" d="M802,715.68a6.22,6.22,0,1,1-8.8,0A6.22,6.22,0,0,1,802,715.68Z"/>
      <circle class="cls-7" cx="478.56" cy="720.08" r="6.22"/>
      <path class="cls-7" d="M161.33,715.68a6.22,6.22,0,1,1-8.8,0A6.22,6.22,0,0,1,161.33,715.68Z"/>
    </g>
    <g class="cls-9">
      <g class="cls-9">
        <rect class="cls-10" x="1184.77" y="693.39" width="89.28" height="11.56"/>
        <polygon class="cls-6" points="1274.05 734.98 1274.05 704.94 1184.77 704.94 1184.77 746.97 1274.05 746.97 1274.05 734.98"/>
        <rect class="cls-10" x="1285.6" y="693.39" width="88.23" height="11.56"/>
        <polygon class="cls-6" points="1373.83 734.98 1373.83 704.94 1285.6 704.94 1285.6 746.97 1373.83 746.97 1373.83 734.98"/>
        <rect class="cls-10" x="1184.77" y="761.67" width="89.28" height="11.56"/>
        <polygon class="cls-6" points="1184.77 803.18 1184.77 815.25 1274.05 815.25 1274.05 773.23 1184.77 773.23 1184.77 803.18"/>
        <rect class="cls-10" x="1285.6" y="761.67" width="88.23" height="11.56"/>
        <polygon class="cls-6" points="1373.83 803.18 1373.83 773.23 1285.6 773.23 1285.6 815.25 1373.83 815.25 1373.83 803.18"/>
        <rect class="cls-10" x="1184.77" y="626.15" width="189.06" height="11.56"/>
        <polygon class="cls-6" points="1373.83 667.01 1373.83 637.7 1184.77 637.7 1184.77 678.68 1373.83 678.68 1373.83 667.01"/>
      </g>
    </g>
    <g class="cls-11">
      <g class="cls-11">
        <rect class="cls-10" x="545.12" y="693.39" width="89.28" height="11.56"/>
        <polygon class="cls-6" points="634.4 734.98 634.4 704.94 545.12 704.94 545.12 746.97 634.4 746.97 634.4 734.98"/>
        <rect class="cls-10" x="645.95" y="693.39" width="88.23" height="11.56"/>
        <polygon class="cls-6" points="734.18 734.98 734.18 704.94 645.95 704.94 645.95 746.97 734.18 746.97 734.18 734.98"/>
        <rect class="cls-10" x="545.12" y="761.67" width="89.28" height="11.56"/>
        <polygon class="cls-6" points="545.12 803.18 545.12 815.25 634.4 815.25 634.4 773.23 545.12 773.23 545.12 803.18"/>
        <rect class="cls-10" x="645.95" y="761.67" width="88.23" height="11.56"/>
        <polygon class="cls-6" points="734.18 803.18 734.18 773.23 645.95 773.23 645.95 815.25 734.18 815.25 734.18 803.18"/>
        <rect class="cls-10" x="545.12" y="626.15" width="189.06" height="11.56"/>
        <polygon class="cls-6" points="734.18 667.01 734.18 637.7 545.12 637.7 545.12 678.68 734.18 678.68 734.18 667.01"/>
      </g>
    </g>
    <g class="cls-12">
      <g class="cls-12">
        <rect class="cls-10" x="224.77" y="693.39" width="89.28" height="11.56"/>
        <polygon class="cls-6" points="314.05 734.98 314.05 704.94 224.77 704.94 224.77 746.97 314.05 746.97 314.05 734.98"/>
        <rect class="cls-10" x="326.65" y="693.39" width="88.23" height="11.56"/>
        <polygon class="cls-6" points="414.88 734.98 414.88 704.94 326.65 704.94 326.65 746.97 414.88 746.97 414.88 734.98"/>
        <rect class="cls-10" x="224.77" y="761.67" width="89.28" height="11.56"/>
        <polygon class="cls-6" points="224.77 803.18 224.77 815.25 314.05 815.25 314.05 773.23 224.77 773.23 224.77 803.18"/>
        <rect class="cls-10" x="326.65" y="761.67" width="88.23" height="11.56"/>
        <polygon class="cls-6" points="414.88 803.18 414.88 773.23 326.65 773.23 326.65 815.25 414.88 815.25 414.88 803.18"/>
        <rect class="cls-10" x="225.82" y="626.15" width="189.06" height="11.56"/>
        <polygon class="cls-6" points="414.88 667.01 414.88 637.7 225.82 637.7 225.82 678.68 414.88 678.68 414.88 667.01"/>
      </g>
    </g>
    <g class="cls-13">
      <g class="cls-13">
        <rect class="cls-10" x="4.2" y="693.39" width="88.23" height="11.56"/>
        <polygon class="cls-6" points="92.43 734.98 92.43 704.94 4.2 704.94 4.2 746.97 92.43 746.97 92.43 734.98"/>
        <rect class="cls-10" x="4.2" y="761.67" width="88.23" height="11.56"/>
        <polygon class="cls-6" points="92.43 803.18 92.43 773.23 4.2 773.23 4.2 815.25 92.43 815.25 92.43 803.18"/>
        <g class="cls-14">
          <rect class="cls-10" x="-96.63" y="626.15" width="189.06" height="11.56"/>
        </g>
        <g class="cls-15">
          <polygon class="cls-6" points="92.43 667.01 92.43 637.7 -96.63 637.7 -96.63 678.68 92.43 678.68 92.43 667.01"/>
        </g>
      </g>
    </g>
  </g>
</svg>
