<svg xmlns="http://www.w3.org/2000/svg" xmlns:xlink="http://www.w3.org/1999/xlink" width="1920" height="1080" viewBox="0 0 1920 1080">
  <defs>
    <style>
      .cls-1 {
        fill: none;
      }

      .cls-2 {
        fill: #f3f5f6;
      }

      .cls-3 {
        isolation: isolate;
      }

      .cls-4 {
        fill: #8795a2;
      }

      .cls-5 {
        fill: #c4cbd2;
      }

      .cls-6 {
        clip-path: url(#clip-path);
      }

      .cls-7 {
        clip-path: url(#clip-path-3);
      }
    </style>
    <clipPath id="clip-path">
      <rect class="cls-1" x="755" y="364" width="364" height="365"/>
    </clipPath>
    <clipPath id="clip-path-3">
      <rect class="cls-1" x="732" y="343" width="409" height="409"/>
    </clipPath>
  </defs>
  <title>shot_12</title>
  <g id="Layer_3" data-name="Layer 3">
    <rect class="cls-2" width="1920" height="1080"/>
    <g class="cls-3">
      <path class="cls-4" d="M263.73,467.48a13.22,13.22,0,0,0-17.87,17.91A105.89,105.89,0,0,1,263.73,467.48Z"/>
      <path class="cls-5" d="M262.17,511.83l9.35,9.35,4.67-4.67,18.69-18.69,4.68-4.68-9.33-9.37,4.55-4.67,34.05-34.18a104.31,104.31,0,0,0-65.07,22.54,105.92,105.92,0,0,0-40.45,83.2l34.18-34.18Z"/>
      <path class="cls-4" d="M276.19,516.48,379,619.28a13.22,13.22,0,0,0,18.69-18.7L294.89,497.79Z"/>
      <rect class="cls-4" x="1532" y="501" width="121" height="60"/>
      <rect class="cls-5" x="1547" y="516" width="121" height="60"/>
      <path class="cls-4" d="M1622.72,546.44a15.38,15.38,0,1,1-15.38-15.37A15.38,15.38,0,0,1,1622.72,546.44Z"/>
      <path class="cls-4" d="M1652.69,546.45a7.63,7.63,0,1,1-7.63-7.63A7.62,7.62,0,0,1,1652.69,546.45Z"/>
      <path class="cls-4" d="M1576.9,546.45a7.63,7.63,0,1,1-7.63-7.63A7.63,7.63,0,0,1,1576.9,546.45Z"/>
      <path class="cls-5" d="M1687.43,479.61a109,109,0,0,0-10.11-12.77l-11,10.29a89.59,89.59,0,0,1,8.66,10.95Z"/>
      <path class="cls-5" d="M1599.59,448a90.44,90.44,0,0,1,44.8,11.81l7.51-13.14a106.21,106.21,0,0,0-94.2-5.21l6,13.92A90,90,0,0,1,1599.59,448Z"/>
      <path class="cls-5" d="M1721.91,541.72l-24.16-24.21-24.21,24.21,10.71,10.73,5.87-5.87a90.82,90.82,0,1,1-150-76.41l-9.92-11.45a105.94,105.94,0,1,0,175,87.78l5.91,5.93Z"/>
      <path class="cls-4" d="M222,736h8.83c3.19,0,5.59.73,7.22,2.17s2.45,3.54,2.45,6.32-.81,4.93-2.45,6.36-4,2.15-7.22,2.15H226v12h-4Zm4,3v11h5a6,6,0,0,0,4.27-1.43,6.24,6.24,0,0,0,0-8.14A6,6,0,0,0,231,739Z"/>
      <path class="cls-4" d="M253.39,742.94a9.28,9.28,0,0,1,7.36,3q2.69,3,2.68,8.44t-2.68,8.43a10.43,10.43,0,0,1-14.74,0c-1.78-2-2.66-4.85-2.66-8.43S244.23,748,246,746A9.31,9.31,0,0,1,253.39,742.94Zm0,3a5.4,5.4,0,0,0-4.57,2.26,10.12,10.12,0,0,0-1.68,6.18,10.26,10.26,0,0,0,1.66,6.19,5.44,5.44,0,0,0,4.59,2.24,5.37,5.37,0,0,0,4.55-2.26,12.13,12.13,0,0,0,0-12.32A5.35,5.35,0,0,0,253.39,746Z"/>
      <polygon class="cls-4" points="267.02 736 270.99 736 277.09 760.51 283.17 736 287.58 736 293.67 760.51 299.75 736 303.74 736 296.45 765 291.52 765 285.4 739.83 279.22 765 274.29 765 267.02 736"/>
      <polygon class="cls-4" points="322 736 327.95 736 335.48 756.41 343.05 736 349 736 349 766 345 766 345 738.59 337.48 760 333.52 760 326 738.59 326 766 322 766 322 736"/>
      <rect class="cls-4" x="356" y="736" width="4" height="29"/>
      <polygon class="cls-4" points="368 736 372.49 736 386 760.26 386 736 390 736 390 765 385.51 765 372 740.74 372 765 368 765 368 736"/>
      <polygon class="cls-4" points="398 736 416 736 416 739 402 739 402 748 416 748 416 751 402 751 402 762 417 762 417 765 398 765 398 736"/>
      <path class="cls-4" d="M427,740v10h4.79a6,6,0,0,0,4.15-1.26,4.81,4.81,0,0,0,1.42-3.76,4.67,4.67,0,0,0-1.42-3.72,6,6,0,0,0-4.15-1.26Zm10,11.4a5.93,5.93,0,0,1,2.5,1.83,18.68,18.68,0,0,1,2.45,3.84L446,765h-4.86l-3.64-7.28a10,10,0,0,0-2.74-3.79,6.08,6.08,0,0,0-3.59-.93H427v12h-4V736h9q5.07,0,7.56,2.08c1.67,1.38,2.5,3.48,2.5,6.27a7.58,7.58,0,0,1-1.31,4.55A6.64,6.64,0,0,1,437,751.4Z"/>
      <path class="cls-4" d="M469,736.88v3.93a24.05,24.05,0,0,0-4.31-1.64,15.75,15.75,0,0,0-3.92-.53,8.67,8.67,0,0,0-5.08,1.27,4.2,4.2,0,0,0-1.77,3.62,3.72,3.72,0,0,0,1.17,3,10.49,10.49,0,0,0,4.5,1.62l2.43.5a12.25,12.25,0,0,1,6.63,3,8.85,8.85,0,0,1-.76,12.32c-1.92,1.48-4.75,2.23-8.48,2.23a22.93,22.93,0,0,1-4.5-.48,34.47,34.47,0,0,1-4.91-1.41v-4.14a24,24,0,0,0,4.8,2.07,16.26,16.26,0,0,0,4.61.69,9,9,0,0,0,5.31-1.35,4.48,4.48,0,0,0,1.88-3.86,4.4,4.4,0,0,0-1.36-3.43,9.16,9.16,0,0,0-4.39-1.84L458.4,752c-3-.6-5.17-1.53-6.51-2.81a7,7,0,0,1-2-5.31,7.61,7.61,0,0,1,2.77-6.21,11.81,11.81,0,0,1,7.66-2.27,25.06,25.06,0,0,1,4.26.38A31,31,0,0,1,469,736.88Z"/>
    </g>
    <g class="cls-6">
      <g class="cls-6">
        <circle class="cls-5" cx="936.56" cy="546.94" r="181.66"/>
      </g>
    </g>
    <g class="cls-7">
      <g class="cls-7">
        <path class="cls-4" d="M936.56,343.06a203.87,203.87,0,0,1,83.24,18.05L927.33,544.63,922,545.9l5.2-1,.11-.23,206.18-49.42a204.46,204.46,0,0,1,6.93,51.73c0,112.59-91.28,203.87-203.88,203.87S732.69,659.53,732.69,546.94A203.88,203.88,0,0,1,936.56,343.06Z"/>
      </g>
    </g>
  </g>
</svg>
