<svg xmlns="http://www.w3.org/2000/svg" width="1920" height="1080" viewBox="0 0 1920 1080">
  <defs>
    <style>
      .cls-1 {
        fill: #f9fafa;
      }

      .cls-2 {
        isolation: isolate;
      }

      .cls-3 {
        fill: #c4cbd2;
      }

      .cls-4 {
        fill: #8795a2;
      }
    </style>
  </defs>
  <title>shot_3</title>
  <g id="Layer_3" data-name="Layer 3">
    <rect class="cls-1" y="8" width="1920" height="1064"/>
    <g class="cls-2">
      <path class="cls-3" d="M897.11,574h0c-.37-.15-.73-.31-1.1-.45l-.06,0-1.07-.42-.1,0-1-.37-.14-.05-1-.33-.17-.06-1-.3-.21-.06-1-.27-.26-.07-.16,0A22.21,22.21,0,0,0,878.59,531h-2.85a22.45,22.45,0,0,0-11.32,41l-.17,0-.27.06-1,.27-.25.07-1,.29-.21.08c-.34.1-.67.21-1,.33l-.17,0-1,.37-.14.05-1,.41-.09,0c-.36.14-.71.29-1.07.45l-.06,0-1.1.49H856a49.3,49.3,0,0,0-7.62,4.38,50.11,50.11,0,0,0-7.16,6.09,38.16,38.16,0,0,0,3.34,6.28c.24.35.67.69.67,1a3.42,3.42,0,0,1,.78,1l.2.24c.25.32.52.65.79,1s.53.64.81.94l.19.22.85.92c.28.3.57.59.88.88l.22.21c.3.29.59.57.9.85s.61.55.93.82l.22.19c.32.26.64.53,1,.78s.66.5,1,.75l.24.17q.49.38,1,.72l1,.67.26.16c.36.22.71.44,1.07.64s.72.41,1.09.6l.26.14c.37.2.74.38,1.12.57l1.13.52.28.12c.38.17.78.33,1.17.49l1.17.44.3.1,1.19.4,1.21.35.31.08L868,608c.41.1.82.18,1.24.27l.31.06,1.27.21c.44.07.85.13,1.28.18.11,0,.21-.06.32,0a11.29,11.29,0,0,0,1.3,0c.44,0,.88.14,1.32.16.11,0,.23.05.33.05.44,0,.88,0,1.33,0h1.54s.23.31.34.31c.45,0,.89-.16,1.34-.16a1.27,1.27,0,0,1,1.32.85h.32c.44-.93.86-1,1.29-1l1.29-.22c.1,0,.21-.13.31-.15.43-.09.85.09,1.27-.36A4.9,4.9,0,0,0,887,608c.1,0,.2,0,.31,0,.41-.11.82-.21,1.22-.33l1.22-.4.29-.1c.81-.3,1.59-.61,2.37-.93l.28-.13c.78-.34,1.54-.71,2.29-1.1l.27-.14c.74-.4,1.47-.82,2.19-1.27l.25-.15c.71-.45,1.41-.92,2.09-1.42l.24-.17c.67-.5,1.34-1,2-1.55l.23-.19c.63-.55,1.26-1.11,1.86-1.7l.21-.21.9-.89c.29-.3.57-.61.85-.92l.2-.23c.27-.31.54-.62.8-.94s.53-.64.78-1L908,594a11.63,11.63,0,0,1,1-1v-.56c.24-.34.48-.68.71-1l.17-.26c.22-.34.45-.68.65-1l0,0c.22-.35.45-.71.63-1.07l.16-.29c.19-.35.38-.69.57-1.05l0-.06.54-1.11c0-.1.1-.21.14-.31.17-.35.33-.7.48-1.07l0-.06A50.28,50.28,0,0,0,897.11,574Z"/>
      <path class="cls-3" d="M821.13,553.22a22.27,22.27,0,0,0-21-22.22h-1.42l-2.37.1a22.26,22.26,0,0,0-10,40.52,50.14,50.14,0,0,0-23.43,13.61,39,39,0,0,0,71.94,0,50.09,50.09,0,0,0-23.43-13.61A22.24,22.24,0,0,0,821.13,553.22Z"/>
      <path class="cls-4" d="M913.12,585.09l0,.07c-.16.36-.31.72-.48,1.07l-.15.31q-.26.56-.54,1.11l0,.06c-.18.35-.37.7-.56,1l-.17.28c-.2.36-.41.73-.62,1.07l0,0c-.21.35-.44.69-.65,1l-.16.26c-.23.35-.47.69-.71,1V593s-.67.66-.92,1l-.19.24c-.25.34-.51.66-.78,1s-.53.63-.8.94l-.2.23c-.29.31-.56.62-.85.92s-.59.6-.9.89l-.21.21c-.6.6-1.22,1.16-1.87,1.7l-.22.19q-1,.81-2,1.56l-.24.16c-.68.5-1.38,1-2.09,1.42l-.25.15c-.72.45-1.45.87-2.2,1.27L895,605c-.75.39-1.51.76-2.29,1.1l-.28.13c-.78.33-1.57.65-2.37.93l-.3.1-1.21.41-1.23.35c-.1,0-.2,0-.31,0a4.76,4.76,0,0,1-1.24.23c-.42.44-.84.27-1.27.36-.1,0-.2.08-.31.1-.45.08-.86.18-1.29.24l-1.29.18c-.11,0-.22-.06-.33,0a9.51,9.51,0,0,1-1.31,0c-.45,0-.9.15-1.34.17-.11,0-.22.05-.34.06A1.76,1.76,0,0,1,877,609h-1.34c-.11.39-.22.29-.33.29-.44,0-.89-.16-1.34-.16s-1.31.87-1.31.87h.08c-.46,0-.89-.09-1.33-.16l-1.32-.22-.32-.06c-.44-.08-.87-.18-1.3-.27s-.85-.21-1.27-.33l-.33-.08-1.25-.36-1.25-.42-.3-.1-1.22-.46-1.21-.5-.29-.13c-.4-.17-.79-.35-1.18-.54s-.77-.39-1.15-.59l-.28-.14c-.38-.21-.76-.41-1.13-.63s-.74-.46-1.1-.66l-.27-.17c-.37-.23-.72-.45-1.08-.7s-.71-.49-1-.74l-.26-.18-1-.78c-.35-.26-.68-.53-1-.81l-.23-.2-1-.84c-.32-.29-.63-.59-.94-.89l-.22-.21-.92-.92c-.3-.31-.58-.63-.87-.95l-.21-.23c-.28-.32-.56-.65-.83-1l-.81-1c-.06-.08-.17-.16-.23-.25a4,4,0,0,0-.81-1c0-.36-.46-.71-.69-1.07a40,40,0,0,1-3.49-6.52A51.63,51.63,0,0,1,856,575h0l1.09-.49.06,0,1.08-.45.09,0,1-.41.14-.05,1-.37.17,0c.33-.12.67-.23,1-.33l.21-.08,1.21-.36,1-.27.28-.07.16,0a22.46,22.46,0,0,1,11.33-41h2.79a22.22,22.22,0,0,1,11.21,40.52l.16,0,.25.07c.32.09.65.17,1,.27l.21.06,1,.3.18.06,1,.33.15.05,1,.37.1,0,1.07.41.06,0,1.09.44h0a50.18,50.18,0,0,1,16,11.07ZM802,507.47a50,50,0,0,1,23.42-13.61,22.27,22.27,0,0,1,11.24-40.63l1.31,0c.41,0,.89,0,1.3,0a22.27,22.27,0,0,1,11.24,40.63,50.05,50.05,0,0,1,23.43,13.61,39,39,0,0,1-71.94,0Zm-3.09,101.61a39.09,39.09,0,0,1-36-23.85,50.14,50.14,0,0,1,23.43-13.61A22.26,22.26,0,0,1,797.55,531h2.61a22.26,22.26,0,0,1,11.24,40.62,50.09,50.09,0,0,1,23.43,13.61A39.09,39.09,0,0,1,798.86,609.08Zm80.76-88.84a50.21,50.21,0,1,0-83.41,0,50.21,50.21,0,1,0,41.71,81.69,50.21,50.21,0,1,0,41.7-81.69Z"/>
      <path class="cls-3" d="M873.89,507.47a50.05,50.05,0,0,0-23.43-13.61,22.27,22.27,0,0,0-11.24-40.63l-1.3,0c-.41,0-.9,0-1.31,0a22.27,22.27,0,0,0-11.24,40.63A50,50,0,0,0,802,507.47a39,39,0,0,0,71.94,0Z"/>
      <path class="cls-4" d="M1109,489.17a22.1,22.1,0,0,1,31.16,0l7.8-7.83a32.9,32.9,0,0,0-18-9.22V455h-11v17.13a33.08,33.08,0,0,0-27,39.18,33.25,33.25,0,0,0,20.12,24.12c.44-1.21.89-2.4,1.4-3.57,1-2.25,2-4.43,3.21-6.56a21.95,21.95,0,0,1-7.7-36.12Z"/>
      <path class="cls-3" d="M1186.23,528.13a32.55,32.55,0,0,1,16.55,8.93l-.25.25-7.48,7.55a21.93,21.93,0,1,0,0,31l7.48,7.55.25.26a33.16,33.16,0,0,1-17.78,9.17V610h-11V592.87a33,33,0,0,1-17.83-55.81,32.41,32.41,0,0,1,17.83-9.18V511h11v16.9Zm-67.44,32.2a60.86,60.86,0,1,0,60.86-60.87A60.86,60.86,0,0,0,1118.79,560.33Z"/>
      <path class="cls-4" d="M1174,511v16.69a32.64,32.64,0,0,0-17.8,9.23A33.12,33.12,0,0,0,1174,593v17h11V593a33.16,33.16,0,0,0,18-9.22l-.25-.25-7.55-7.58a22,22,0,1,1,0-31.16l7.51-7.59.25-.25a32.63,32.63,0,0,0-16.63-9c-.41-.09-.36-.23-.36-.23V511Z"/>
      <path class="cls-3" d="M1108,563.18c0-1.11-.08-2.21-.08-3.33a71.79,71.79,0,0,1,4.24-24.42,33.24,33.24,0,0,1-10.92-54.09,32.21,32.21,0,0,1,17.73-9.21V455h11v17.12a32.59,32.59,0,0,1,17.87,9.22l-7.75,7.83a21.84,21.84,0,0,0-33.83,3.59,22.05,22.05,0,0,0,10.44,32.53,71.46,71.46,0,0,1,62.78-37.36c1.1,0,2.21,0,3.31.08A60.53,60.53,0,1,0,1108,563.16Z"/>
    </g>
  </g>
</svg>
