<svg xmlns="http://www.w3.org/2000/svg" xmlns:xlink="http://www.w3.org/1999/xlink" width="1920" height="1080" viewBox="0 0 1920 1080">
  <defs>
    <style>
      .cls-1 {
        fill: none;
      }

      .cls-2 {
        fill: #f3f5f6;
      }

      .cls-3 {
        isolation: isolate;
      }

      .cls-4 {
        fill: #8795a2;
      }

      .cls-5 {
        fill: #c4cbd2;
      }

      .cls-6 {
        fill: #2d72ff;
      }

      .cls-7 {
        clip-path: url(#clip-path);
      }

      .cls-8 {
        clip-path: url(#clip-path-3);
      }

      .cls-9 {
        clip-path: url(#clip-path-5);
      }

      .cls-10 {
        fill: #2b71ff;
      }
    </style>
    <clipPath id="clip-path">
      <rect class="cls-1" x="737" y="364" width="364" height="365"/>
    </clipPath>
    <clipPath id="clip-path-3">
      <rect class="cls-1" x="734" y="363" width="279" height="369"/>
    </clipPath>
    <clipPath id="clip-path-5">
      <rect class="cls-1" x="906" y="495" width="215" height="232"/>
    </clipPath>
  </defs>
  <title>shot_15</title>
  <g id="Layer_3" data-name="Layer 3">
    <rect class="cls-2" width="1920" height="1080"/>
    <g class="cls-3">
      <path class="cls-4" d="M263.73,467.48a13.22,13.22,0,0,0-17.87,17.91A105.89,105.89,0,0,1,263.73,467.48Z"/>
      <path class="cls-5" d="M262.17,511.83l9.35,9.35,4.67-4.67,18.69-18.69,4.68-4.68-9.33-9.37,4.55-4.67,34.05-34.18a104.31,104.31,0,0,0-65.07,22.54,105.92,105.92,0,0,0-40.45,83.2l34.18-34.18Z"/>
      <path class="cls-4" d="M276.19,516.48,379,619.28a13.22,13.22,0,0,0,18.69-18.7L294.89,497.79Z"/>
      <rect class="cls-4" x="1532" y="501" width="121" height="60"/>
      <rect class="cls-5" x="1547" y="516" width="121" height="60"/>
      <path class="cls-4" d="M1622.72,546.44a15.38,15.38,0,1,1-15.38-15.37A15.38,15.38,0,0,1,1622.72,546.44Z"/>
      <path class="cls-4" d="M1652.69,546.45a7.63,7.63,0,1,1-7.63-7.63A7.62,7.62,0,0,1,1652.69,546.45Z"/>
      <path class="cls-4" d="M1576.9,546.45a7.63,7.63,0,1,1-7.63-7.63A7.63,7.63,0,0,1,1576.9,546.45Z"/>
      <path class="cls-6" d="M1687.43,479.61a109,109,0,0,0-10.11-12.77l-11,10.29a89.59,89.59,0,0,1,8.66,10.95Z"/>
      <path class="cls-6" d="M1599.59,448a90.44,90.44,0,0,1,44.8,11.81l7.51-13.14a106.21,106.21,0,0,0-94.2-5.21l6,13.92A90,90,0,0,1,1599.59,448Z"/>
      <path class="cls-6" d="M1721.91,541.72l-24.16-24.21-24.21,24.21,10.71,10.73,5.87-5.87a90.82,90.82,0,1,1-150-76.41l-9.92-11.45a105.94,105.94,0,1,0,175,87.78l5.91,5.93Z"/>
    </g>
    <g class="cls-7">
      <g class="cls-7">
        <path class="cls-5" d="M737.36,546.94A181.66,181.66,0,0,0,919,728.6c100.33,0,181.67-81.33,181.67-181.66S1019.35,365.28,919,365.28A181.66,181.66,0,0,0,737.36,546.94Z"/>
      </g>
    </g>
    <g class="cls-8">
      <g class="cls-8">
        <path class="cls-4" d="M919,363.07a183.93,183.93,0,0,1,75.08,16.28l-83.4,165.5L905.87,546l4.69-.94.1-.21.93-.22.33.53-.33.11.39,0,100.28,159.88A183.89,183.89,0,0,1,919,730.8c-101.54,0-183.86-82.32-183.86-183.86S817.44,363.07,919,363.07Z"/>
      </g>
    </g>
    <g class="cls-9">
      <g class="cls-9">
        <path class="cls-10" d="M1113.45,495.83A204.77,204.77,0,0,1,1019.6,725.4L907.33,545.23Z"/>
      </g>
    </g>
  </g>
</svg>
