<svg xmlns="http://www.w3.org/2000/svg" xmlns:xlink="http://www.w3.org/1999/xlink" width="1920" height="1080" viewBox="0 0 1920 1080">
  <defs>
    <style>
      .cls-1 {
        fill: none;
      }

      .cls-2 {
        fill: #f3f5f6;
      }

      .cls-3 {
        isolation: isolate;
      }

      .cls-4 {
        fill: #c4cbd2;
      }

      .cls-5 {
        fill: #8896a3;
      }

      .cls-6 {
        clip-path: url(#clip-path);
      }

      .cls-7 {
        fill: #8795a2;
      }
    </style>
    <clipPath id="clip-path">
      <rect class="cls-1" x="542" y="441" width="191" height="191"/>
    </clipPath>
  </defs>
  <title>shot_18</title>
  <g id="Layer_3" data-name="Layer 3">
    <rect class="cls-2" width="1920" height="1080"/>
    <g class="cls-3">
      <path class="cls-4" d="M1399.65,419.84a25.4,25.4,0,1,0-30.78,0,58.08,58.08,0,0,0-30.3,20.19,50.87,50.87,0,0,0,91.4,0A58.1,58.1,0,0,0,1399.65,419.84Z"/>
      <path class="cls-5" d="M1420.2,453.69A50.87,50.87,0,0,1,1338.57,440a58.14,58.14,0,0,1,30.32-20.19,25.4,25.4,0,1,1,30.78,0A58.11,58.11,0,0,1,1430,440,50.48,50.48,0,0,1,1420.2,453.69Zm-35.93-94a58.07,58.07,0,1,0,58.07,58.07A58.07,58.07,0,0,0,1384.27,359.7Z"/>
      <path class="cls-4" d="M1182.26,418a25.41,25.41,0,1,0-30.78,0,58.08,58.08,0,0,0-30.3,20.19,50.87,50.87,0,0,0,91.4,0A58.1,58.1,0,0,0,1182.26,418Z"/>
      <path class="cls-5" d="M1202.81,451.84a50.86,50.86,0,0,1-81.63-13.66A58.1,58.1,0,0,1,1151.5,418a25.4,25.4,0,1,1,30.78,0,58.15,58.15,0,0,1,30.31,20.18A50.7,50.7,0,0,1,1202.81,451.84Zm-35.93-94A58.07,58.07,0,1,0,1225,415.92,58.07,58.07,0,0,0,1166.88,357.85Z"/>
      <path class="cls-4" d="M1187.81,658.62a25.41,25.41,0,1,0-30.77,0,58.17,58.17,0,0,0-30.31,20.19,50.87,50.87,0,0,0,91.4,0A58.16,58.16,0,0,0,1187.81,658.62Z"/>
      <path class="cls-5" d="M1208.36,692.47a50.86,50.86,0,0,1-81.63-13.66,58.23,58.23,0,0,1,30.32-20.19,25.41,25.41,0,1,1,30.78,0,58.18,58.18,0,0,1,30.32,20.18A50.73,50.73,0,0,1,1208.36,692.47Zm-35.93-94a58.07,58.07,0,1,0,58.07,58.07A58.07,58.07,0,0,0,1172.43,598.48Z"/>
      <path class="cls-4" d="M1398.89,660.47a25.41,25.41,0,1,0-30.78,0,58,58,0,0,0-30.3,20.19,50.87,50.87,0,0,0,91.39,0A58.07,58.07,0,0,0,1398.89,660.47Z"/>
      <path class="cls-5" d="M1419.44,694.32a50.87,50.87,0,0,1-81.63-13.66,58.06,58.06,0,0,1,30.32-20.19,25.4,25.4,0,1,1,30.77,0,58,58,0,0,1,30.31,20.19A51,51,0,0,1,1419.44,694.32Zm-35.93-94a58.07,58.07,0,1,0,58.06,58.07A58.07,58.07,0,0,0,1383.51,600.33Z"/>
      <path class="cls-4" d="M1294.05,537.77a25.41,25.41,0,1,0-30.77,0A58.05,58.05,0,0,0,1233,558a50.87,50.87,0,0,0,91.39,0A58,58,0,0,0,1294.05,537.77Z"/>
      <path class="cls-5" d="M1314.6,571.61A50.86,50.86,0,0,1,1233,558a58.08,58.08,0,0,1,30.32-20.18,25.41,25.41,0,1,1,30.78,0A58.09,58.09,0,0,1,1324.38,558,50.81,50.81,0,0,1,1314.6,571.61Zm-35.93-94a58.07,58.07,0,1,0,58.07,58.06A58.06,58.06,0,0,0,1278.67,477.63Z"/>
    </g>
    <g class="cls-6">
      <rect class="cls-7" x="543" y="510" width="89" height="12"/>
      <polygon class="cls-4" points="632 552.02 632 522 543 522 543 564 632 564 632 552.02"/>
      <rect class="cls-7" x="643" y="510" width="89" height="12"/>
      <polygon class="cls-4" points="732 552.02 732 522 643 522 643 564 732 564 732 552.02"/>
      <rect class="cls-7" x="543" y="578" width="89" height="12"/>
      <polygon class="cls-4" points="543 619.92 543 632 632 632 632 590 543 590 543 619.92"/>
      <rect class="cls-7" x="643" y="578" width="89" height="12"/>
      <polygon class="cls-4" points="732 619.92 732 590 643 590 643 632 732 632 732 619.92"/>
      <rect class="cls-7" x="543" y="442" width="189" height="12"/>
      <polygon class="cls-4" points="732 483.33 732 454 543 454 543 495 732 495 732 483.33"/>
    </g>
  </g>
</svg>
