<svg xmlns="http://www.w3.org/2000/svg" xmlns:xlink="http://www.w3.org/1999/xlink" width="1920" height="1080" viewBox="0 0 1920 1080">
  <defs>
    <style>
      .cls-1 {
        fill: none;
      }

      .cls-2 {
        isolation: isolate;
      }

      .cls-3 {
        clip-path: url(#clip-path);
      }

      .cls-4 {
        fill: #f9fafa;
      }

      .cls-5 {
        fill: #c4cbd2;
      }

      .cls-6 {
        fill: #8795a2;
      }
    </style>
    <clipPath id="clip-path">
      <rect class="cls-1" width="1920" height="1080"/>
    </clipPath>
  </defs>
  <title>shot_40</title>
  <g id="Layer_3" data-name="Layer 3">
    <g class="cls-2">
      <g class="cls-3">
        <g class="cls-2">
          <g class="cls-3">
            <g class="cls-3">
              <rect class="cls-4" width="1920" height="1080"/>
            </g>
          </g>
          <path class="cls-5" d="M860.84,583h0l-1.12-.46-.07,0-1.09-.43-.11,0-1-.38-.15,0-1-.34-.18-.06-1-.31-.21-.06c-.33-.1-.66-.18-1-.27l-.26-.07-.17,0A22.72,22.72,0,0,0,841.89,539h-2.36A23,23,0,0,0,828,580.9l-.17.05-.28.07-1,.27-.25.08-1,.29-.22.08c-.34.1-.68.21-1,.34l-.18,0-1,.38-.14,0-1.07.41-.09,0c-.37.14-.73.3-1.1.46l-.06,0-1.12.5h.12a51.12,51.12,0,0,0-15.22,10.78,38.46,38.46,0,0,0,3.44,6.46c.24.36.68.71.68,1.07a3.69,3.69,0,0,1,.81,1c.06.08.14.15.21.24l.8,1c.27.33.56.65.84,1l.2.23.87,1c.3.31.59.61.91.91l.22.21.94.88c.31.28.62.56,1,.84l.23.19c.32.28.66.55,1,.81l1,.77.25.18c.34.25.69.5,1,.74s.71.45,1.06.69l.27.16c.37.23.73.46,1.1.67l1.12.61.27.15,1.15.58,1.17.53.28.13,1.2.5,1.21.45.31.11,1.23.41c.41.13.83.24,1.25.36l.31.08,1.27.32,1.28.28.33.06,1.3.22c.45.07.88.13,1.32.18a3.26,3.26,0,0,1,.33,0,11.92,11.92,0,0,0,1.34,0c.45,0,.9.14,1.36.17.11,0,.23.05.34.05.45,0,.9,0,1.36,0H842s.23-.36.34-.36c.46,0,.91-.17,1.36-.17a1.53,1.53,0,0,1,1.34.53h.33a1.62,1.62,0,0,1,1.31-.71c.46-.07.87-.14,1.31-.23.11,0,.21-.13.32-.15.43-.08.85.1,1.28-.36a5,5,0,0,0,1.27-.23c.1,0,.21,0,.31,0l1.25-.34,1.23-.4.3-.11c.82-.3,1.62-.62,2.41-1l.28-.13c.79-.34,1.56-.71,2.32-1.11l.28-.15c.75-.4,1.49-.82,2.22-1.28l.26-.15c.72-.46,1.43-.94,2.12-1.44l.24-.18c.69-.5,1.36-1,2-1.58l.23-.19c.65-.55,1.28-1.12,1.9-1.72l.21-.21c.3-.3.59-.6.91-.91s.58-.62.86-.93l.21-.23.81-1c.28-.33.54-.65.8-1l.18-.24.77-1v-.21l.73-1,.17-.27c.23-.35.46-.7.67-1l0,0c.22-.35.45-.73.64-1.09l.16-.3c.2-.35.4-.71.58-1.07l0-.06.55-1.14.15-.31c.16-.36.33-.73.49-1.1l0-.07A51.7,51.7,0,0,0,860.84,583Z"/>
          <path class="cls-5" d="M784,561.56A22.6,22.6,0,0,0,762.72,539h-1.45l-2.4.1a22.6,22.6,0,0,0-10.21,41.14,51,51,0,0,0-23.79,13.82,39.65,39.65,0,0,0,73,0,51,51,0,0,0-23.79-13.82A22.55,22.55,0,0,0,784,561.56Z"/>
          <path class="cls-6" d="M877.12,594.09l0,.07c-.16.36-.31.72-.48,1.07l-.15.31q-.26.56-.54,1.11l0,.06c-.18.35-.37.7-.56,1l-.17.28c-.2.36-.41.73-.62,1.07l0,0c-.21.35-.44.69-.65,1l-.16.26c-.23.35-.47.69-.71,1v.61s-.46.67-.71,1l-.2.24c-.25.35-.52.67-.79,1s-.53.64-.82,1l-.2.23c-.29.31-.57.63-.86.93s-.59.61-.91.91l-.22.21a23.64,23.64,0,0,1-1.89,1.72l-.23.19c-.65.56-1.32,1.08-2,1.59l-.24.17c-.69.5-1.4,1-2.12,1.44l-.26.15c-.73.46-1.47.88-2.23,1.28l-.27.15c-.75.4-1.53.77-2.32,1.11l-.28.13c-.79.35-1.6.67-2.41,1l-.3.11-1.23.41-1.25.36c-.1,0-.21,0-.31,0a5,5,0,0,1-1.27.23c-.42.45-.85.28-1.28.36-.11,0-.21.09-.32.11-.46.08-.87.18-1.31.25s-.87.13-1.31.18c-.11,0-.22-.06-.33-.05a11.92,11.92,0,0,1-1.34,0c-.45,0-.91.15-1.36.17-.11,0-.22,0-.34.06a2.38,2.38,0,0,0-1.36.33h-1.36c-.11-.29-.22-.38-.33-.39-.46,0-.91-.16-1.36-.16a4.16,4.16,0,0,0-1.34.55h-.16c-.46,0-.89-.09-1.33-.16l-1.32-.22-.32-.06c-.44-.08-.87-.18-1.3-.27s-.85-.21-1.28-.33l-.32-.08-1.25-.36c-.42-.13-.83-.27-1.25-.42l-.3-.1-1.22-.46-1.21-.5-.29-.13c-.4-.17-.79-.35-1.18-.54s-.77-.39-1.15-.59l-.28-.14c-.38-.21-.76-.41-1.13-.63s-.74-.46-1.1-.66l-.27-.17c-.37-.23-.72-.45-1.08-.7s-.71-.49-1.05-.74l-.26-.18-1-.78c-.35-.26-.68-.53-1-.81l-.23-.2-1-.84c-.32-.29-.63-.59-.94-.89l-.22-.21c-.3-.3-.61-.6-.92-.92s-.58-.63-.87-.95l-.21-.23c-.28-.32-.56-.65-.83-1l-.81-1c-.06-.08-.17-.16-.23-.25a4,4,0,0,0-.81-1c0-.36-.46-.71-.7-1.07a41.62,41.62,0,0,1-3.49-6.52A51.84,51.84,0,0,1,819.4,584h.1l1.09-.49.06,0,1.08-.45.09,0,1-.41.14-.05,1-.37.17,0c.33-.12.67-.23,1-.33l.21-.08,1.21-.36c.32-.1.64-.18,1-.27l.28-.07.16,0a22.45,22.45,0,0,1,11.33-41h3.25a22.22,22.22,0,0,1,11.21,40.52l.16,0,.25.07c.32.09.65.17,1,.27l.21.06,1,.3.18.06,1,.33.15.05,1,.37.1,0,1.07.41.06,0,1.09.44h0a50.18,50.18,0,0,1,16,11.07ZM764.53,515.23a50.87,50.87,0,0,1,23.78-13.81,22.62,22.62,0,0,1,11.41-41.25l1.33,0c.42,0,.91,0,1.32,0a22.61,22.61,0,0,1,11.42,41.25,50.87,50.87,0,0,1,23.78,13.81,39.64,39.64,0,0,1-73,0Zm-3.13,103a39.71,39.71,0,0,1-36.53-24.22,51,51,0,0,1,23.79-13.82A22.6,22.6,0,0,1,760.07,539h1.45l2.4.1a22.61,22.61,0,0,1,10.21,41.14,51,51,0,0,1,23.79,13.82A39.73,39.73,0,0,1,761.4,618.28Zm82-90.08a51,51,0,1,0-84.68,0,51,51,0,1,0,42.34,82.94,51,51,0,1,0,42.34-82.94Z"/>
          <path class="cls-5" d="M837.57,515.23a50.87,50.87,0,0,0-23.78-13.81,22.61,22.61,0,0,0-11.42-41.25l-1.32,0c-.42,0-.91,0-1.33,0a22.62,22.62,0,0,0-11.41,41.25,50.87,50.87,0,0,0-23.78,13.81,39.64,39.64,0,0,0,73,0Z"/>
          <path class="cls-6" d="M1076,496.7a21.85,21.85,0,0,1,31.16,0l7.8-8a32.7,32.7,0,0,0-18-9.35V462h-11v17.39a32.67,32.67,0,0,0-18,9.35,33.79,33.79,0,0,0,11,54.92c.44-1.22.89-2.43,1.4-3.62,1-2.29,2-4.5,3.21-6.66a22.45,22.45,0,0,1-7.7-36.68Z"/>
          <path class="cls-5" d="M1154.23,536.48a32.26,32.26,0,0,1,16.55,9.11l-.25.25-7.48,7.7a21.6,21.6,0,0,0-23.89-4.85,22.55,22.55,0,0,0,0,41.33,21.62,21.62,0,0,0,23.89-4.85l7.48,7.7.25.26a32.91,32.91,0,0,1-17.78,9.36V620h-11V602.52a33.22,33.22,0,0,1-25.87-22.93,34.14,34.14,0,0,1,8-34,32.24,32.24,0,0,1,17.83-9.37V519h11v17.24Q1153.62,536.34,1154.23,536.48Zm-68,32.43a61.79,61.79,0,1,0,61.8-61.8A61.79,61.79,0,0,0,1086.22,568.91Z"/>
          <path class="cls-6" d="M1142,519v17.22a36.39,36.39,0,0,0-19.47,9.37,32,32,0,0,0-8.86,34c4.1,12,15,20.84,28.33,22.93V620h11V602a33.6,33.6,0,0,0,18.74-9.36l-.26-.26-7.66-7.69a22.35,22.35,0,1,1,0-31.65l7.63-7.7.25-.25a33.08,33.08,0,0,0-16.88-9.11,8.38,8.38,0,0,1-.83-.23V519Z"/>
          <path class="cls-5" d="M1075,571.83c0-1.12-.08-2.24-.08-3.37a73.92,73.92,0,0,1,4.24-24.8,33.52,33.52,0,0,1-19.87-24.48,34.13,34.13,0,0,1,9-30.44,32.1,32.1,0,0,1,17.73-9.35V462h11v17.39a32.39,32.39,0,0,1,17.87,9.35l-7.75,8a21.65,21.65,0,0,0-33.83,3.63,22.74,22.74,0,0,0-2.49,19.06,22.16,22.16,0,0,0,12.93,14,71.29,71.29,0,0,1,62.78-37.92c1.1,0,2.21,0,3.31.08a61.09,61.09,0,0,0-43-42.84,59.7,59.7,0,0,0-58,16.1A62.59,62.59,0,0,0,1033.06,528a61.16,61.16,0,0,0,42,43.87Z"/>
        </g>
      </g>
    </g>
  </g>
</svg>
