<svg xmlns="http://www.w3.org/2000/svg" xmlns:xlink="http://www.w3.org/1999/xlink" width="1920" height="1080" viewBox="0 0 1920 1080">
  <defs>
    <style>
      .cls-1 {
        fill: none;
      }

      .cls-2 {
        isolation: isolate;
      }

      .cls-3 {
        clip-path: url(#clip-path);
      }

      .cls-4 {
        fill: #f9fafa;
      }

      .cls-5 {
        fill: #8795a2;
      }

      .cls-6 {
        fill: #c4cbd2;
      }
    </style>
    <clipPath id="clip-path">
      <rect class="cls-1" width="1920" height="1080"/>
    </clipPath>
  </defs>
  <title>shot_42</title>
  <g id="Layer_3" data-name="Layer 3">
    <g class="cls-2">
      <g class="cls-3">
        <g class="cls-2">
          <g class="cls-3">
            <g class="cls-3">
              <rect class="cls-4" width="1920" height="1080"/>
            </g>
          </g>
          <rect class="cls-5" x="1033" y="618" width="179" height="11"/>
          <rect class="cls-5" x="1056" y="596" width="135" height="11"/>
          <rect class="cls-5" x="1055" y="517" width="17" height="47"/>
          <rect class="cls-5" x="1173" y="517" width="17" height="44"/>
          <rect class="cls-5" x="1144" y="517" width="17" height="22"/>
          <rect class="cls-5" x="1114" y="517" width="17" height="49"/>
          <rect class="cls-5" x="1085" y="517" width="17" height="22"/>
          <rect class="cls-6" x="1055" y="561" width="17" height="23"/>
          <rect class="cls-6" x="1173" y="559" width="17" height="25"/>
          <rect class="cls-6" x="1144" y="531" width="17" height="54"/>
          <rect class="cls-6" x="1114" y="562" width="17" height="22"/>
          <rect class="cls-6" x="1085" y="533" width="17" height="51"/>
          <polygon class="cls-5" points="1212 494.81 1122.5 450.07 1033 494.81 1033 506 1212 506 1212 494.81"/>
          <path class="cls-6" d="M538.84,583h0l-1.12-.46-.06,0-1.1-.43-.1,0-1.06-.38-.15,0-1-.34-.18-.06-1-.31-.21-.06c-.33-.1-.66-.18-1-.27l-.26-.07-.17,0A22.72,22.72,0,0,0,519.88,539h-2.63a23,23,0,0,0-11.58,41.9l-.17.05-.28.07-1,.27-.25.08-1,.29-.22.08c-.34.1-.68.21-1,.34l-.18,0-1,.38-.14,0-1.07.41-.09,0c-.37.14-.73.3-1.1.46l-.06,0L497,584h.12a50.51,50.51,0,0,0-7.85,4.51,51.22,51.22,0,0,0-7.37,6.27,39.2,39.2,0,0,0,3.44,6.46c.24.36.68.71.68,1.07a3.49,3.49,0,0,1,.8,1,2.41,2.41,0,0,1,.21.24l.81,1c.27.33.56.65.84,1l.2.23c.29.32.58.64.88,1s.59.61.91.91l.21.21.93.88,1,.84.24.19c.32.28.66.55,1,.81l1,.77.25.18c.34.25.69.5,1,.74l1.07.69.26.16c.36.23.72.46,1.1.67l1.12.61.27.15,1.15.58c.39.18.77.36,1.17.53l.28.13,1.2.5c.4.16.81.31,1.21.45l.31.11,1.23.41c.41.13.83.24,1.24.36l.32.08,1.27.32,1.28.28.32.06,1.31.22c.46.07.88.13,1.32.18.11,0,.22-.06.33,0a11.82,11.82,0,0,0,1.33,0c.46,0,.91.14,1.37.17.11,0,.23.05.34.05.45,0,.91,0,1.36,0h1.32s.23-.36.34-.36c.46,0,.91-.17,1.36-.17a1.54,1.54,0,0,1,1.34.53h.32a1.64,1.64,0,0,1,1.32-.71c.46-.07.87-.14,1.3-.23.11,0,.22-.13.33-.15.43-.08.86.1,1.28-.36a5,5,0,0,0,1.27-.23c.1,0,.21,0,.31,0l1.25-.34,1.23-.4.3-.11c.82-.3,1.62-.62,2.41-1l.28-.13c.79-.34,1.56-.71,2.32-1.11l.27-.15c.76-.4,1.5-.82,2.23-1.28l.26-.15c.72-.46,1.43-.94,2.12-1.44l.24-.18c.69-.5,1.36-1,2-1.58l.23-.19c.65-.55,1.28-1.12,1.89-1.72l.22-.21.91-.91c.29-.3.58-.62.86-.93l.21-.23.81-1c.28-.33.54-.65.8-1l.19-.24a9.29,9.29,0,0,1,1-1v-.21l.73-1,.17-.27c.22-.35.46-.7.67-1l0,0c.22-.35.45-.73.64-1.09l.16-.3c.2-.35.4-.71.58-1.07l0-.06.55-1.14.15-.31c.16-.36.33-.73.49-1.1l0-.07A51.44,51.44,0,0,0,538.84,583Z"/>
          <path class="cls-6" d="M461.72,561.56A22.6,22.6,0,0,0,440.44,539h-2.65a22.6,22.6,0,0,0-11.41,41.24,51,51,0,0,0-23.79,13.82,39.65,39.65,0,0,0,73.05,0,51,51,0,0,0-23.79-13.82A22.58,22.58,0,0,0,461.72,561.56Z"/>
          <path class="cls-5" d="M555.13,594.09l0,.07c-.16.36-.31.72-.48,1.07,0,.1-.1.2-.14.31-.18.37-.36.74-.55,1.11l0,.06c-.18.35-.37.7-.56,1l-.17.28c-.2.36-.41.73-.62,1.07l0,0c-.2.35-.44.69-.65,1l-.16.26c-.23.35-.47.69-.71,1v.61a10.23,10.23,0,0,0-1,1l-.19.24c-.26.35-.53.67-.8,1l-.81,1-.21.23c-.28.31-.57.63-.86.93s-.59.61-.91.91l-.22.21a25.36,25.36,0,0,1-1.88,1.72l-.24.19c-.65.56-1.32,1.08-2,1.59l-.24.17c-.69.5-1.4,1-2.12,1.44l-.26.15c-.72.46-1.47.88-2.22,1.28l-.28.15c-.75.4-1.53.77-2.32,1.11l-.28.13c-.79.35-1.59.67-2.41,1l-.3.11-1.23.41-1.25.36c-.1,0-.2,0-.31,0a5,5,0,0,1-1.27.23c-.43.45-.85.28-1.28.36-.11,0-.21.09-.32.11-.46.08-.87.18-1.31.25l-1.31.18c-.11,0-.22-.06-.33-.05a11.82,11.82,0,0,1-1.33,0c-.46,0-.91.15-1.37.17-.11,0-.22,0-.34.06a2.38,2.38,0,0,0-1.36.33h-1.36c-.11-.29-.22-.38-.33-.39-.46,0-.91-.16-1.36-.16a4.16,4.16,0,0,0-1.34.55h-.16c-.46,0-.89-.09-1.33-.16l-1.32-.22-.32-.06c-.44-.08-.87-.18-1.3-.27l-1.28-.33-.31-.08-1.26-.36c-.42-.13-.83-.27-1.24-.42l-.31-.1-1.22-.46-1.21-.5-.29-.13-1.17-.54c-.4-.19-.78-.39-1.17-.59l-.28-.14c-.37-.21-.75-.41-1.12-.63s-.74-.46-1.11-.66l-.26-.17c-.37-.23-.73-.45-1.08-.7s-.71-.49-1.06-.74l-.25-.18-1-.78c-.34-.26-.68-.53-1-.81l-.23-.2-1-.84c-.32-.29-.63-.59-.94-.89l-.22-.21-.92-.92-.87-.95c-.07-.08-.14-.15-.2-.23-.29-.32-.57-.65-.84-1l-.82-1c-.05-.08-.16-.16-.22-.25a4.24,4.24,0,0,0-.81-1c0-.36-.46-.71-.7-1.07a41.62,41.62,0,0,1-3.49-6.52,51.81,51.81,0,0,1,7.46-6.33,50.89,50.89,0,0,1,7.92-4.54h.08l1.1-.49.06,0,1.07-.45.1,0,1-.41.14-.05,1-.37.17,0c.33-.12.66-.23,1-.33l.21-.08,1-.29.25-.07c.31-.1.63-.18,1-.27l.27-.07.17,0a22.45,22.45,0,0,1,11.33-41h3.53a22.22,22.22,0,0,1,11.21,40.52l.16,0,.26.07,1,.27.21.06,1,.3.18.06,1,.33.14.05,1,.37.1,0,1.07.41.06,0,1.09.44h0a50.18,50.18,0,0,1,16,11.07ZM442.25,515.23A50.75,50.75,0,0,1,466,501.42a22.61,22.61,0,0,1,11.4-41.25l1.33,0c.42,0,.91,0,1.33,0a22.62,22.62,0,0,1,11.41,41.25,50.87,50.87,0,0,1,23.78,13.81,39.64,39.64,0,0,1-73,0Zm-3.14,103a39.72,39.72,0,0,1-36.52-24.22,51,51,0,0,1,23.79-13.82A22.6,22.6,0,0,1,437.79,539h2.65a22.6,22.6,0,0,1,11.41,41.24,51,51,0,0,1,23.79,13.82A39.73,39.73,0,0,1,439.11,618.28Zm82-90.08a51,51,0,1,0-84.68,0,51,51,0,1,0,42.34,82.94,51,51,0,1,0,42.34-82.94Z"/>
          <path class="cls-6" d="M515.29,515.23a50.87,50.87,0,0,0-23.78-13.81,22.62,22.62,0,0,0-11.41-41.25l-1.33,0c-.42,0-.91,0-1.33,0A22.61,22.61,0,0,0,466,501.42a50.75,50.75,0,0,0-23.79,13.81,39.64,39.64,0,0,0,73,0Z"/>
          <path class="cls-5" d="M1455.59,553.17A16.16,16.16,0,0,0,1439.46,537h-12.78l8.9,8h3.7a8.6,8.6,0,0,1,8.48,6.52,8.52,8.52,0,0,1-8.27,10.48h-12.64l17.2,15h11.53l-10.06-8.8A16.25,16.25,0,0,0,1455.59,553.17Z"/>
          <path class="cls-5" d="M1429.9,597a39.66,39.66,0,1,1,39.66-39.66A39.67,39.67,0,0,1,1429.9,597Zm54.1-19.89v0c12.7,0,25-23.17,25-23.17h0V483.79a17.07,17.07,0,0,0-12,4.93,16.75,16.75,0,0,0-5,11.9V515h0v13.87a4,4,0,1,1-8,.17V469.15a10.74,10.74,0,0,0-10.34-10.87A10.49,10.49,0,0,0,1463,468.77v37.46c-.19,5.81-8.81,5.81-9,0v-45.7a11,11,0,1,0-22,0v46c0,5.34-8,5.34-8,0V460.65a10.74,10.74,0,0,0-10.32-10.87,10.5,10.5,0,0,0-10.68,10.5v46c0,6-9,6-9,0V477.57a10.74,10.74,0,0,0-9.55-10.82A10.55,10.55,0,0,0,1373,477.33V631h110Z"/>
          <path class="cls-6" d="M1455.63,577h-11.56l-17.19-15h12.4a8.66,8.66,0,0,0,8.65-7.23,8.51,8.51,0,0,0-8.41-9.77h-3.93l-8.9-8h12.82a16.21,16.21,0,0,1,6.08,31.2Zm-35.54,0a15.82,15.82,0,0,1-5.92-30.44l-9.8-8.56h11.36l17.18,15h-12.56a8.2,8.2,0,0,0-8.3,7.51,8,8,0,0,0,8,8.49h4.18l8.91,8Zm9.81-59.76A40.12,40.12,0,1,0,1458.27,529,40.12,40.12,0,0,0,1429.9,517.24Z"/>
          <path class="cls-5" d="M1420.07,569a8,8,0,0,1-2.2-15.7,8.13,8.13,0,0,1,2.36-.3h12.71l-17.16-15h-11.34l9.82,8.54a15.82,15.82,0,0,0,5.88,30.46h13l-8.91-8Z"/>
          <path class="cls-5" d="M754.13,496.7a21.62,21.62,0,0,1,31,0l7.75-8A32.46,32.46,0,0,0,775,479.39V462H764v17.39a32.13,32.13,0,0,0-17.73,9.35,34.12,34.12,0,0,0-8.95,30.43,33.51,33.51,0,0,0,19.86,24.49c.43-1.22.87-2.43,1.38-3.62,1-2.29,2-4.5,3.17-6.66a22.26,22.26,0,0,1-13.54-16.24,22.68,22.68,0,0,1,5.94-20.44Z"/>
          <path class="cls-6" d="M832.23,536.48a32.25,32.25,0,0,1,16.56,9.11l-.25.25-7.48,7.7a21.62,21.62,0,0,0-23.9-4.85,22.54,22.54,0,0,0,0,41.33,21.64,21.64,0,0,0,23.9-4.85l7.48,7.7.25.26A32.9,32.9,0,0,1,831,602.49V620H820V602.52a33.24,33.24,0,0,1-25.89-22.93,34.16,34.16,0,0,1,8-34A32.3,32.3,0,0,1,820,536.22V519h11v17.24Q831.62,536.34,832.23,536.48Zm-68.29,32.43a61.8,61.8,0,1,0,61.79-61.8A61.77,61.77,0,0,0,763.94,568.91Z"/>
          <path class="cls-5" d="M820,519v17.22a36.45,36.45,0,0,0-19.49,9.37,32.05,32.05,0,0,0-8.86,34c4.1,12,15,20.84,28.35,22.93V620h11V602a33.71,33.71,0,0,0,18.46-9.36l-.26-.26-7.66-7.69a22.35,22.35,0,1,1,0-31.65l7.63-7.7.25-.25A33.08,33.08,0,0,0,832.55,536a1.1,1.1,0,0,1-.55-.23V519Z"/>
          <path class="cls-6" d="M753,571.83c0-1.12-.08-2.24-.08-3.37a73.92,73.92,0,0,1,4.24-24.8,33.52,33.52,0,0,1-19.87-24.48,34.13,34.13,0,0,1,8.95-30.44A32.13,32.13,0,0,1,764,479.39V462h11v17.39a32.39,32.39,0,0,1,17.87,9.35l-7.75,8a21.65,21.65,0,0,0-33.83,3.63,22.74,22.74,0,0,0-2.49,19.06,22.16,22.16,0,0,0,12.93,14,71.29,71.29,0,0,1,62.78-37.92c1.11,0,2.21,0,3.31.08a61.07,61.07,0,0,0-43-42.84,59.7,59.7,0,0,0-58,16.1A62.59,62.59,0,0,0,711.06,528a61.16,61.16,0,0,0,42,43.87Z"/>
        </g>
      </g>
    </g>
  </g>
</svg>
