<svg xmlns="http://www.w3.org/2000/svg" xmlns:xlink="http://www.w3.org/1999/xlink" width="1920" height="1080" viewBox="0 0 1920 1080">
  <defs>
    <style>
      .cls-1 {
        fill: none;
      }

      .cls-2 {
        fill: #f3f5f6;
      }

      .cls-3 {
        isolation: isolate;
      }

      .cls-4 {
        fill: #8896a3;
      }

      .cls-5 {
        fill: #c4cbd2;
      }

      .cls-6 {
        fill: #2a70fe;
      }

      .cls-7 {
        fill: #8795a2;
      }

      .cls-8 {
        clip-path: url(#clip-path);
      }

      .cls-9 {
        clip-path: url(#clip-path-3);
      }

      .cls-10 {
        clip-path: url(#clip-path-5);
      }

      .cls-11 {
        fill: #2970ff;
      }
    </style>
    <clipPath id="clip-path">
      <rect class="cls-1" x="775" y="364" width="365" height="365"/>
    </clipPath>
    <clipPath id="clip-path-3">
      <rect class="cls-1" x="773" y="364" width="368" height="367"/>
    </clipPath>
    <clipPath id="clip-path-5">
      <rect class="cls-1" x="754" y="343" width="309" height="409"/>
    </clipPath>
  </defs>
  <title>shot_14</title>
  <g id="Layer_3" data-name="Layer 3">
    <rect class="cls-2" width="1920" height="1080"/>
    <g class="cls-3">
      <path class="cls-4" d="M263.73,467.48a13.22,13.22,0,0,0-17.87,17.91A105.89,105.89,0,0,1,263.73,467.48Z"/>
      <path class="cls-5" d="M262.17,511.83l9.35,9.35,4.67-4.67,18.69-18.69,4.68-4.68-9.33-9.37,4.55-4.67,34.05-34.18a104.31,104.31,0,0,0-65.07,22.54,105.92,105.92,0,0,0-40.45,83.2l34.18-34.18Z"/>
      <path class="cls-6" d="M276.19,516.48,379,619.28a13.22,13.22,0,0,0,18.69-18.7L294.89,497.79Z"/>
      <rect class="cls-7" x="1532" y="501" width="121" height="60"/>
      <rect class="cls-5" x="1547" y="516" width="121" height="60"/>
      <path class="cls-7" d="M1622.72,546.44a15.38,15.38,0,1,1-15.38-15.37A15.38,15.38,0,0,1,1622.72,546.44Z"/>
      <path class="cls-7" d="M1652.69,546.45a7.63,7.63,0,1,1-7.63-7.63A7.62,7.62,0,0,1,1652.69,546.45Z"/>
      <path class="cls-7" d="M1576.9,546.45a7.63,7.63,0,1,1-7.63-7.63A7.63,7.63,0,0,1,1576.9,546.45Z"/>
      <path class="cls-5" d="M1687.43,479.61a109,109,0,0,0-10.11-12.77l-11,10.29a89.59,89.59,0,0,1,8.66,10.95Z"/>
      <path class="cls-5" d="M1599.59,448a90.44,90.44,0,0,1,44.8,11.81l7.51-13.14a106.21,106.21,0,0,0-94.2-5.21l6,13.92A90,90,0,0,1,1599.59,448Z"/>
      <path class="cls-5" d="M1721.91,541.72l-24.16-24.21-24.21,24.21,10.71,10.73,5.87-5.87a90.82,90.82,0,1,1-150-76.41l-9.92-11.45a105.94,105.94,0,1,0,175,87.78l5.91,5.93Z"/>
    </g>
    <g class="cls-8">
      <g class="cls-8">
        <path class="cls-5" d="M775.84,546.94A181.67,181.67,0,1,0,957.51,365.28,181.66,181.66,0,0,0,775.84,546.94Z"/>
      </g>
    </g>
    <g class="cls-9">
      <g class="cls-9">
        <path class="cls-7" d="M957.51,364a182.71,182.71,0,0,1,74.68,16.19l-83,164.66L944.45,546l4.66-.94.11-.21,185-44.33a183.23,183.23,0,0,1,6.22,46.41c0,101-81.91,182.93-182.93,182.93S774.57,648,774.57,546.94A182.92,182.92,0,0,1,957.51,364Z"/>
      </g>
    </g>
    <g class="cls-10">
      <g class="cls-10">
        <path class="cls-11" d="M957.85,342.71a204.27,204.27,0,0,1,83.39,18.08L948.61,544.62l-5.32,1.28,5.2-1,.12-.23,1-.25.37.59-.37.13.43,0,111.39,177.58a204.34,204.34,0,0,1-103.61,28.51c-112.79,0-204.22-91.44-204.22-204.22S845.06,342.71,957.85,342.71Z"/>
      </g>
    </g>
  </g>
</svg>
