<svg xmlns="http://www.w3.org/2000/svg" width="1920" height="1080" viewBox="0 0 1920 1080">
  <defs>
    <style>
      .cls-1 {
        fill: #f9fafa;
      }

      .cls-2 {
        isolation: isolate;
      }

      .cls-3 {
        fill: #8795a2;
      }

      .cls-4 {
        fill: #c4cbd2;
      }
    </style>
  </defs>
  <title>shot_4</title>
  <g id="Layer_3" data-name="Layer 3">
    <rect class="cls-1" width="1920" height="1080"/>
    <g class="cls-2">
      <rect class="cls-3" x="1193" y="618" width="179" height="11"/>
      <rect class="cls-3" x="1215" y="596" width="135" height="11"/>
      <rect class="cls-3" x="1215" y="517" width="17" height="47"/>
      <rect class="cls-3" x="1333" y="517" width="17" height="44"/>
      <rect class="cls-3" x="1303" y="517" width="17" height="22"/>
      <rect class="cls-3" x="1274" y="517" width="17" height="49"/>
      <rect class="cls-3" x="1245" y="517" width="17" height="22"/>
      <rect class="cls-4" x="1215" y="561" width="17" height="23"/>
      <rect class="cls-4" x="1333" y="559" width="17" height="25"/>
      <rect class="cls-4" x="1303" y="531" width="17" height="54"/>
      <rect class="cls-4" x="1274" y="562" width="17" height="22"/>
      <rect class="cls-4" x="1245" y="533" width="17" height="51"/>
      <polygon class="cls-3" points="1282.5 450.07 1193 494.81 1193 506 1372 506 1372 494.81 1282.5 450.07"/>
      <path class="cls-4" d="M698.84,583h0l-1.12-.46-.07,0-1.09-.43-.11,0-1-.38-.15,0-1-.34-.18-.06-1-.31-.21-.06c-.33-.1-.66-.18-1-.27l-.26-.07-.17,0A22.72,22.72,0,0,0,679.88,539h-2.75a23,23,0,0,0-11.58,41.9l-.18.05-.28.07-1,.27-.26.08-1,.29-.21.08c-.34.1-.69.21-1,.34l-.17,0-1.05.38-.15,0-1.06.41-.1,0c-.37.14-.73.3-1.09.46l-.07,0-1.11.5H657a50.41,50.41,0,0,0-7.84,4.51,51.3,51.3,0,0,0-7.38,6.27,40,40,0,0,0,3.44,6.46c.24.36.69.71.69,1.07a3.66,3.66,0,0,1,.8,1c.06.08.15.15.21.24l.81,1c.27.33.55.65.83,1l.21.23c.28.32.57.64.87,1s.59.61.91.91l.22.21c.3.3.61.59.93.88l1,.84.23.19c.33.28.66.55,1,.81l1,.77.25.18,1,.74,1.07.69.26.16c.37.23.73.46,1.11.67l1.11.61.28.15c.37.2.75.39,1.15.58l1.16.53.29.13,1.2.5,1.2.45.31.11,1.23.41,1.25.36.31.08,1.28.32,1.28.28.32.06,1.3.22c.46.07.88.13,1.32.18.11,0,.22-.06.33,0a12.07,12.07,0,0,0,1.34,0c.45,0,.91.14,1.36.17.12,0,.23.05.34.05.46,0,.91,0,1.36,0h1.33s.22-.36.34-.36c.45,0,.9-.17,1.36-.17a1.55,1.55,0,0,1,1.34.53H683a1.63,1.63,0,0,1,1.32-.71c.45-.07.87-.14,1.3-.23.11,0,.21-.13.32-.15.43-.08.86.1,1.28-.36a4.91,4.91,0,0,0,1.27-.23c.11,0,.21,0,.32,0L690,617l1.24-.4.29-.11c.82-.3,1.62-.62,2.41-1l.29-.13c.79-.34,1.56-.71,2.32-1.11l.27-.15c.75-.4,1.49-.82,2.22-1.28l.26-.15c.72-.46,1.44-.94,2.12-1.44l.24-.18c.69-.5,1.36-1,2-1.58l.24-.19c.64-.55,1.27-1.12,1.89-1.72l.21-.21.91-.91.87-.93.2-.23c.28-.32.55-.63.82-1s.53-.65.79-1l.19-.24a8.6,8.6,0,0,1,1.17-1v-.21l.73-1,.17-.27c.23-.35.46-.7.67-1l0,0c.22-.35.45-.73.64-1.09l.16-.3c.2-.35.4-.71.58-1.07l0-.06.55-1.14.15-.31c.16-.36.33-.73.49-1.1l0-.07A51.55,51.55,0,0,0,698.84,583Z"/>
      <path class="cls-4" d="M621.59,561.56A22.6,22.6,0,0,0,600.31,539h-2.65a22.6,22.6,0,0,0-11.41,41.24,51,51,0,0,0-23.79,13.82,39.65,39.65,0,0,0,73,0,51,51,0,0,0-23.79-13.82A22.55,22.55,0,0,0,621.59,561.56Z"/>
      <path class="cls-3" d="M715.12,594.09l0,.07c-.15.36-.31.72-.48,1.07l-.15.31q-.26.56-.54,1.11l0,.06c-.18.35-.37.7-.56,1l-.17.28c-.19.36-.4.73-.62,1.07,0,0,0,0,0,0-.2.35-.44.69-.65,1l-.16.26c-.23.35-.47.69-.71,1v.61a9.06,9.06,0,0,0-1.12,1l-.19.24c-.26.35-.52.67-.79,1s-.54.64-.82,1l-.21.23c-.28.31-.56.63-.86.93s-.59.61-.91.91l-.21.21c-.61.61-1.24,1.18-1.9,1.72l-.22.19c-.66.56-1.33,1.08-2,1.59l-.23.17q-1,.75-2.13,1.44l-.25.15c-.73.46-1.47.88-2.23,1.28l-.27.15c-.76.4-1.54.77-2.32,1.11l-.29.13c-.79.35-1.59.67-2.4,1l-.31.11-1.23.41-1.25.36c-.1,0-.2,0-.31,0a5,5,0,0,1-1.26.23c-.43.45-.86.28-1.29.36-.11,0-.21.09-.32.11-.45.08-.87.18-1.31.25s-.87.13-1.31.18c-.11,0-.22-.06-.33-.05a11.92,11.92,0,0,1-1.34,0c-.45,0-.9.15-1.35.17-.11,0-.23,0-.34.06a2.35,2.35,0,0,0-1.36.33H677c-.12-.29-.23-.38-.34-.39-.45,0-.91-.16-1.36-.16a4.07,4.07,0,0,0-1.33.55h-.17c-.46,0-.89-.09-1.33-.16l-1.32-.22-.32-.06c-.43-.08-.87-.18-1.29-.27s-.86-.21-1.28-.33l-.32-.08-1.26-.36c-.41-.13-.83-.27-1.24-.42l-.31-.1-1.21-.46-1.21-.5-.29-.13c-.4-.17-.79-.35-1.18-.54l-1.16-.59-.28-.14-1.13-.63c-.37-.22-.74-.46-1.1-.66l-.27-.17c-.36-.23-.72-.45-1.07-.7s-.71-.49-1.06-.74l-.25-.18c-.35-.25-.69-.52-1-.78s-.67-.53-1-.81l-.23-.2-1-.84c-.32-.29-.63-.59-.94-.89l-.22-.21-.91-.92c-.3-.31-.59-.63-.88-.95l-.2-.23c-.29-.32-.57-.65-.84-1l-.81-1c-.06-.08-.16-.16-.23-.25a4,4,0,0,0-.81-1c0-.36-.45-.71-.69-1.07a40,40,0,0,1-3.49-6.52A51.5,51.5,0,0,1,657,584h.09l1.09-.49.06,0,1.08-.45.09,0,1.05-.41.14-.05,1-.37.17,0c.33-.12.66-.23,1-.33l.2-.08,1.22-.36c.31-.1.63-.18,1-.27l.27-.07.16,0a22.46,22.46,0,0,1,11.33-41h3.66a22.22,22.22,0,0,1,11.21,40.52l.16,0,.25.07c.32.09.65.17,1,.27l.21.06,1,.3.18.06,1,.33.15.05,1,.37.1,0,1.07.41.06,0,1.09.44h0a50.33,50.33,0,0,1,16.06,11.07Zm-113-78.86a50.85,50.85,0,0,1,23.79-13.81,22.61,22.61,0,0,1,11.41-41.25l1.33,0c.41,0,.9,0,1.32,0a22.61,22.61,0,0,1,11.41,41.25,50.85,50.85,0,0,1,23.79,13.81,39.65,39.65,0,0,1-73,0Zm-3.13,103a39.73,39.73,0,0,1-36.53-24.22,51,51,0,0,1,23.79-13.82A22.6,22.6,0,0,1,597.66,539h2.65a22.6,22.6,0,0,1,11.41,41.24,51,51,0,0,1,23.79,13.82A39.7,39.7,0,0,1,599,618.28Zm82-90.08a51,51,0,1,0-84.68,0,51,51,0,1,0,42.35,82.94A51,51,0,1,0,681,528.2Z"/>
      <path class="cls-4" d="M675.17,515.23a50.85,50.85,0,0,0-23.79-13.81A22.61,22.61,0,0,0,640,460.17l-1.32,0c-.43,0-.92,0-1.33,0a22.61,22.61,0,0,0-11.41,41.25,50.85,50.85,0,0,0-23.79,13.81,39.65,39.65,0,0,0,73,0Z"/>
      <path class="cls-3" d="M914,496.7a21.85,21.85,0,0,1,31.16,0l7.8-8a32.7,32.7,0,0,0-18-9.35V462H924v17.39a32.67,32.67,0,0,0-18,9.35,33.79,33.79,0,0,0,11.05,54.92c.44-1.22.89-2.43,1.4-3.62,1-2.29,2-4.5,3.21-6.66A22.45,22.45,0,0,1,914,496.7Z"/>
      <path class="cls-4" d="M992.23,536.48a32.26,32.26,0,0,1,16.55,9.11l-.25.25-7.48,7.7a21.6,21.6,0,0,0-23.89-4.85,22.54,22.54,0,0,0,0,41.33,21.62,21.62,0,0,0,23.89-4.85l7.48,7.7.25.26A32.91,32.91,0,0,1,991,602.49V620H980V602.52a33.22,33.22,0,0,1-25.87-22.93,34.15,34.15,0,0,1,8-34A32.3,32.3,0,0,1,980,536.22V519h11v17.24Q991.62,536.34,992.23,536.48Zm-68.42,32.43a61.8,61.8,0,1,0,61.8-61.8A61.78,61.78,0,0,0,923.81,568.91Z"/>
      <path class="cls-3" d="M980,519v17.22a36.35,36.35,0,0,0-19.47,9.37,32,32,0,0,0-8.87,34c4.1,12,15,20.84,28.34,22.93V620h11V602a33.71,33.71,0,0,0,18.33-9.36l-.25-.26-7.66-7.69a22.36,22.36,0,1,1,0-31.65l7.63-7.7.26-.25A33.1,33.1,0,0,0,992.42,536c-.41-.09-.42-.23-.42-.23V519Z"/>
      <path class="cls-4" d="M913,571.83c0-1.12-.08-2.24-.08-3.37a73.92,73.92,0,0,1,4.24-24.8,33.52,33.52,0,0,1-19.87-24.48,34.13,34.13,0,0,1,8.95-30.44A32.1,32.1,0,0,1,924,479.39V462h11v17.39a32.39,32.39,0,0,1,17.87,9.35l-7.75,8a21.65,21.65,0,0,0-33.83,3.63,22.74,22.74,0,0,0-2.49,19.06,22.16,22.16,0,0,0,12.93,14,71.29,71.29,0,0,1,62.78-37.92c1.11,0,2.21,0,3.31.08a61.09,61.09,0,0,0-43-42.84,59.7,59.7,0,0,0-58,16.1A62.59,62.59,0,0,0,871.06,528a61.18,61.18,0,0,0,42,43.87Z"/>
    </g>
  </g>
</svg>
