<svg xmlns="http://www.w3.org/2000/svg" xmlns:xlink="http://www.w3.org/1999/xlink" width="1920" height="1080" viewBox="0 0 1920 1080">
  <defs>
    <style>
      .cls-1 {
        fill: none;
      }

      .cls-2 {
        clip-path: url(#clip-path);
      }

      .cls-3 {
        fill: #f3f5f6;
      }

      .cls-4 {
        isolation: isolate;
      }

      .cls-5 {
        fill: #8795a2;
      }

      .cls-6, .cls-9 {
        fill: #c4cbd2;
      }

      .cls-7 {
        fill: #c5ccd3;
      }

      .cls-8 {
        clip-path: url(#clip-path-3);
      }

      .cls-9 {
        opacity: 0.98;
      }

      .cls-10 {
        clip-path: url(#clip-path-5);
      }
    </style>
    <clipPath id="clip-path">
      <rect class="cls-1" width="1920" height="1080"/>
    </clipPath>
    <clipPath id="clip-path-3">
      <rect class="cls-1" x="755" y="364" width="364" height="365"/>
    </clipPath>
    <clipPath id="clip-path-5">
      <rect class="cls-1" x="732" y="343" width="409" height="409"/>
    </clipPath>
  </defs>
  <title>shot_13</title>
  <g id="Layer_3" data-name="Layer 3">
    <g class="cls-2">
      <g class="cls-2">
        <rect class="cls-3" width="1920" height="1080"/>
      </g>
    </g>
    <g class="cls-4">
      <path class="cls-5" d="M263.73,467.48a13.22,13.22,0,0,0-17.87,17.91A105.89,105.89,0,0,1,263.73,467.48Z"/>
      <path class="cls-6" d="M262.17,511.83l9.35,9.35,4.67-4.67,18.69-18.69,4.68-4.68-9.33-9.37,4.55-4.67,34.05-34.18a104.31,104.31,0,0,0-65.07,22.54,105.92,105.92,0,0,0-40.45,83.2l34.18-34.18Z"/>
      <path class="cls-5" d="M276.19,516.48,379,619.28a13.22,13.22,0,0,0,18.69-18.7L294.89,497.79Z"/>
      <rect class="cls-5" x="1532" y="501" width="121" height="60"/>
      <rect class="cls-7" x="1547" y="516" width="121" height="60"/>
      <path class="cls-5" d="M1622.72,546.44a15.38,15.38,0,1,1-15.38-15.37A15.38,15.38,0,0,1,1622.72,546.44Z"/>
      <path class="cls-5" d="M1652.69,546.45a7.63,7.63,0,1,1-7.63-7.63A7.62,7.62,0,0,1,1652.69,546.45Z"/>
      <path class="cls-5" d="M1576.9,546.45a7.63,7.63,0,1,1-7.63-7.63A7.63,7.63,0,0,1,1576.9,546.45Z"/>
      <path class="cls-7" d="M1687.43,479.61a109,109,0,0,0-10.11-12.77l-11,10.29a89.59,89.59,0,0,1,8.66,10.95Z"/>
      <path class="cls-7" d="M1599.59,448a90.44,90.44,0,0,1,44.8,11.81l7.51-13.14a106.21,106.21,0,0,0-94.2-5.21l6,13.92A90,90,0,0,1,1599.59,448Z"/>
      <path class="cls-7" d="M1721.91,541.72l-24.16-24.21-24.21,24.21,10.71,10.73,5.87-5.87a90.82,90.82,0,1,1-150-76.41l-9.92-11.45a105.94,105.94,0,1,0,175,87.78l5.91,5.93Z"/>
      <path class="cls-5" d="M1488,729h8.84c3.18,0,5.59.72,7.21,2.17s2.46,3.54,2.46,6.32-.82,4.92-2.46,6.36-4,2.15-7.21,2.15H1492v12h-4Zm4,3v11h5a6,6,0,0,0,4.27-1.43,6.21,6.21,0,0,0,0-8.14A6,6,0,0,0,1497,732Z"/>
      <path class="cls-5" d="M1519.41,735.54a9.31,9.31,0,0,1,7.37,3c1.78,2,2.67,4.85,2.67,8.44s-.89,6.4-2.67,8.44a10.44,10.44,0,0,1-14.75,0c-1.77-2-2.66-4.86-2.66-8.44s.89-6.41,2.66-8.44A9.31,9.31,0,0,1,1519.41,735.54Zm0,3a5.39,5.39,0,0,0-4.57,2.27,10.11,10.11,0,0,0-1.68,6.17,10.31,10.31,0,0,0,1.66,6.19,5.42,5.42,0,0,0,4.59,2.25,5.37,5.37,0,0,0,4.55-2.27,12.07,12.07,0,0,0,0-12.32A5.36,5.36,0,0,0,1519.41,738.58Z"/>
      <path class="cls-5" d="M1553,729.49v3.91a24.83,24.83,0,0,0-4.32-1.63,15.17,15.17,0,0,0-3.91-.53,8.65,8.65,0,0,0-5.08,1.27,4.19,4.19,0,0,0-1.77,3.62,3.76,3.76,0,0,0,1.17,3,10.53,10.53,0,0,0,4.5,1.6l2.43.5a12.25,12.25,0,0,1,6.62,3,8.81,8.81,0,0,1-.76,12.31c-1.92,1.48-4.74,2.23-8.47,2.23a22.93,22.93,0,0,1-4.5-.48,34.47,34.47,0,0,1-4.91-1.41v-4.14a22.9,22.9,0,0,0,4.8,2.07,15.93,15.93,0,0,0,4.61.7,9,9,0,0,0,5.31-1.36,5,5,0,0,0,.52-7.28,9.25,9.25,0,0,0-4.39-1.85l-2.46-.48c-3-.59-5.16-1.53-6.5-2.8a7,7,0,0,1-2-5.31,7.58,7.58,0,0,1,2.77-6.21,11.8,11.8,0,0,1,7.65-2.27,23.92,23.92,0,0,1,4.26.38A29.6,29.6,0,0,1,1553,729.49Z"/>
      <polygon class="cls-5" points="1581.21 758 1570.13 729 1574.23 729 1583.42 753.42 1592.63 729 1596.7 729 1585.65 758 1581.21 758"/>
      <path class="cls-5" d="M1612.15,728.25a12.5,12.5,0,0,1,9.8,4.12q3.67,4.11,3.68,11t-3.68,11a13.82,13.82,0,0,1-19.65,0q-3.67-4.11-3.67-11t3.67-11A12.62,12.62,0,0,1,1612.15,728.25Zm0,3.21a8.29,8.29,0,0,0-6.84,3.2c-1.68,2.14-2.52,5-2.52,8.73s.84,6.57,2.52,8.71a8.29,8.29,0,0,0,6.84,3.2,8.16,8.16,0,0,0,6.79-3.2c1.69-2.14,2.52-5,2.52-8.71s-.83-6.59-2.52-8.73A8.16,8.16,0,0,0,1612.15,731.46Z"/>
      <polygon class="cls-5" points="1628 729 1653 729 1653 732 1642 732 1642 758 1638 758 1638 732 1628 732 1628 729"/>
      <polygon class="cls-5" points="1656 729 1674 729 1674 732 1660 732 1660 741 1674 741 1674 744 1660 744 1660 755 1675 755 1675 758 1656 758 1656 729"/>
      <path class="cls-5" d="M1686,732v10h4.79a6,6,0,0,0,4.15-1.26,4.81,4.81,0,0,0,1.42-3.76,4.65,4.65,0,0,0-1.42-3.71,6,6,0,0,0-4.15-1.27Zm10,12.4a5.76,5.76,0,0,1,2.49,1.83,18.26,18.26,0,0,1,2.46,3.84L1705,758h-4.9l-3.63-7.28a10.12,10.12,0,0,0-2.73-3.79,6.15,6.15,0,0,0-3.6-.93H1686v12h-4V729h9q5.07,0,7.56,2.08t2.5,6.27a7.58,7.58,0,0,1-1.31,4.55A6.64,6.64,0,0,1,1696,744.4Z"/>
      <path class="cls-5" d="M1727,729.49v3.91a24.83,24.83,0,0,0-4.32-1.63,15.17,15.17,0,0,0-3.91-.53,8.65,8.65,0,0,0-5.08,1.27,4.19,4.19,0,0,0-1.77,3.62,3.76,3.76,0,0,0,1.17,3,10.53,10.53,0,0,0,4.5,1.6l2.43.5a12.25,12.25,0,0,1,6.62,3,8.81,8.81,0,0,1-.76,12.31c-1.92,1.48-4.74,2.23-8.47,2.23a22.93,22.93,0,0,1-4.5-.48,34.47,34.47,0,0,1-4.91-1.41v-4.14a22.9,22.9,0,0,0,4.8,2.07,15.93,15.93,0,0,0,4.61.7,8.94,8.94,0,0,0,5.31-1.36,5,5,0,0,0,.52-7.28,9.25,9.25,0,0,0-4.39-1.85l-2.46-.48c-3-.59-5.16-1.53-6.5-2.8a7,7,0,0,1-2-5.31,7.58,7.58,0,0,1,2.77-6.21,11.8,11.8,0,0,1,7.65-2.27,23.92,23.92,0,0,1,4.26.38A29.6,29.6,0,0,1,1727,729.49Z"/>
    </g>
    <g class="cls-8">
      <g class="cls-8">
        <circle class="cls-9" cx="936.56" cy="546.94" r="181.66"/>
      </g>
    </g>
    <g class="cls-10">
      <g class="cls-10">
        <path class="cls-5" d="M936.56,343.06a203.87,203.87,0,0,1,83.24,18.05L927.33,544.63,922,545.9l5.2-1,.11-.23,206.18-49.42a204.46,204.46,0,0,1,6.93,51.73c0,112.59-91.28,203.87-203.88,203.87S732.69,659.53,732.69,546.94A203.88,203.88,0,0,1,936.56,343.06Z"/>
      </g>
    </g>
  </g>
</svg>
