<svg xmlns="http://www.w3.org/2000/svg" width="1920" height="1080" viewBox="0 0 1920 1080">
  <defs>
    <style>
      .cls-1 {
        fill: #f3f5f6;
      }

      .cls-2 {
        isolation: isolate;
      }

      .cls-3 {
        fill: #8795a2;
      }

      .cls-4 {
        fill: #c4cbd2;
      }
    </style>
  </defs>
  <title>shot_10</title>
  <g id="Layer_3" data-name="Layer 3">
    <rect class="cls-1" width="1920" height="1080"/>
    <g class="cls-2">
      <path class="cls-3" d="M583.08,467.48a13.21,13.21,0,0,0-17.87,17.91A105.89,105.89,0,0,1,583.08,467.48Z"/>
      <path class="cls-4" d="M581.52,511.83l9.34,9.35,23.36-23.36,4.69-4.68-9.33-9.37,4.55-4.67,34-34.18a104.35,104.35,0,0,0-65.07,22.54,106,106,0,0,0-40.45,83.2l34.18-34.18Z"/>
      <path class="cls-3" d="M595.54,516.48l102.8,102.8a13.22,13.22,0,0,0,18.7-18.7L614.23,497.79Z"/>
      <rect class="cls-3" x="1207" y="501" width="121" height="60"/>
      <rect class="cls-4" x="1222" y="516" width="121" height="60"/>
      <path class="cls-3" d="M1298.14,546.44a15.38,15.38,0,1,1-15.37-15.37A15.37,15.37,0,0,1,1298.14,546.44Z"/>
      <path class="cls-3" d="M1328.11,546.45a7.63,7.63,0,1,1-7.63-7.63A7.62,7.62,0,0,1,1328.11,546.45Z"/>
      <path class="cls-3" d="M1252.32,546.45a7.64,7.64,0,1,1-7.63-7.63A7.63,7.63,0,0,1,1252.32,546.45Z"/>
      <path class="cls-4" d="M1362.84,479.61a109,109,0,0,0-10.1-12.77l-11,10.29a89.59,89.59,0,0,1,8.66,10.95Z"/>
      <path class="cls-4" d="M1275,448a90.4,90.4,0,0,1,44.79,11.81l7.52-13.14a106.21,106.21,0,0,0-94.2-5.21l6.06,13.92A89.93,89.93,0,0,1,1275,448Z"/>
      <path class="cls-4" d="M1397.32,541.72l-24.15-24.21L1349,541.72l10.71,10.73,5.87-5.87a90.82,90.82,0,1,1-150-76.41l-9.91-11.45a105.94,105.94,0,1,0,175,87.78l5.9,5.93Z"/>
    </g>
  </g>
</svg>
