<svg xmlns="http://www.w3.org/2000/svg" width="1920" height="1080" viewBox="0 0 1920 1080">
  <defs>
    <style>
      .cls-1 {
        fill: #f9fafa;
      }

      .cls-2 {
        isolation: isolate;
      }

      .cls-3 {
        fill: #c4cbd2;
      }

      .cls-4 {
        fill: #8795a2;
      }
    </style>
  </defs>
  <title>shot_2</title>
  <g id="Layer_3" data-name="Layer 3">
    <rect class="cls-1" width="1920" height="1080"/>
    <g class="cls-2">
      <path class="cls-3" d="M1019.83,583h0l-1.12-.46-.07,0-1.09-.43-.11,0-1.06-.38-.14,0-1-.34-.18-.06-1-.31-.22-.06c-.32-.1-.65-.18-1-.27l-.26-.07-.17,0A22.73,22.73,0,0,0,1000.88,539h-2.4a23,23,0,0,0-11.58,41.9l-.17.05-.28.07-1,.27-.25.08-1,.29-.22.08c-.34.1-.68.21-1,.34l-.17,0-1,.38-.15,0-1.06.41-.1,0c-.37.14-.73.3-1.1.46l-.06,0-1.11.5h.11a50.41,50.41,0,0,0-7.84,4.51,51.3,51.3,0,0,0-7.38,6.27,38.46,38.46,0,0,0,3.44,6.46c.24.36.69.71.69,1.07a3.85,3.85,0,0,1,.8,1c.06.08.14.15.21.24.25.33.53.67.8,1l.84,1,.2.23c.29.32.58.64.88,1s.59.61.9.91l.22.21.93.88,1,.84.23.19,1,.81,1,.77.25.18,1,.74,1.07.69.26.16c.36.23.73.46,1.1.67l1.12.61.27.15,1.15.58c.39.18.77.36,1.17.53l.29.13,1.19.5c.4.16.81.31,1.21.45l.31.11,1.23.41c.41.13.83.24,1.24.36l.32.08,1.27.32,1.28.28.32.06,1.31.22c.46.07.88.13,1.32.18.11,0,.22-.06.33,0a12,12,0,0,0,1.34,0c.45,0,.91.14,1.36.17.11,0,.22.05.34.05.45,0,.91,0,1.36,0H1001s.23-.36.34-.36c.46,0,.91-.17,1.36-.17a1.53,1.53,0,0,1,1.34.53h.33a1.61,1.61,0,0,1,1.31-.71c.45-.07.87-.14,1.31-.23.1,0,.21-.13.32-.15.43-.08.86.1,1.28-.36a5,5,0,0,0,1.27-.23c.1,0,.21,0,.31,0l1.25-.34,1.23-.4.3-.11c.82-.3,1.62-.62,2.41-1l.29-.13c.78-.34,1.56-.71,2.31-1.11l.27-.15c.76-.4,1.5-.82,2.23-1.28l.26-.15c.72-.46,1.43-.94,2.12-1.44l.24-.18c.69-.5,1.36-1,2-1.58l.23-.19c.65-.55,1.28-1.12,1.89-1.72l.22-.21.91-.91c.29-.3.58-.62.86-.93l.21-.23c.27-.32.55-.63.81-1s.54-.65.79-1l.2-.24c.25-.33.81-1,.81-1v-.21q.38-.52.72-1l.18-.27q.35-.52.66-1a.05.05,0,0,0,0,0,11.06,11.06,0,0,0,.64-1.09l.17-.3c.2-.35.39-.71.58-1.07l0-.06c.19-.37.37-.76.56-1.14,0-.1.1-.21.14-.31.17-.36.34-.73.49-1.1l0-.07A51.48,51.48,0,0,0,1019.83,583Z"/>
      <path class="cls-3" d="M943,561.56A22.6,22.6,0,0,0,921.67,539h-1.45l-2.4.1a22.6,22.6,0,0,0-10.21,41.14,51,51,0,0,0-23.79,13.82,39.65,39.65,0,0,0,73,0,51,51,0,0,0-23.79-13.82A22.58,22.58,0,0,0,943,561.56Z"/>
      <path class="cls-4" d="M1036.13,594.09l0,.07c-.15.36-.31.72-.48,1.07,0,.1-.09.2-.14.31l-.54,1.11,0,.06-.57,1-.16.28c-.2.36-.41.73-.63,1.07a.05.05,0,0,1,0,0c-.21.35-.44.69-.65,1l-.17.26c-.23.35-.47.69-.71,1v.61l-.77,1-.18.24c-.26.35-.52.67-.8,1l-.81,1-.21.23c-.28.31-.57.63-.86.93s-.59.61-.91.91l-.21.21c-.61.61-1.24,1.18-1.9,1.72l-.22.19c-.66.56-1.33,1.08-2,1.59l-.24.17c-.69.5-1.4,1-2.12,1.44l-.26.15c-.72.46-1.46.88-2.22,1.28l-.28.15c-.76.4-1.53.77-2.32,1.11l-.28.13c-.79.35-1.59.67-2.41,1l-.3.11-1.23.41-1.25.36c-.1,0-.21,0-.31,0a5,5,0,0,1-1.27.23c-.43.45-.85.28-1.28.36-.11,0-.21.09-.32.11-.46.08-.87.18-1.31.25s-.87.13-1.31.18c-.11,0-.22-.06-.33-.05a11.92,11.92,0,0,1-1.34,0c-.45,0-.9.15-1.36.17-.11,0-.22,0-.33.06a2.4,2.4,0,0,0-1.37.33h-1.36c-.11-.29-.22-.38-.34-.39-.45,0-.9-.16-1.36-.16a4.18,4.18,0,0,0-1.33.55h-.16c-.46,0-.89-.09-1.33-.16l-1.32-.22-.32-.06c-.44-.08-.87-.18-1.29-.27s-.86-.21-1.29-.33l-.31-.08-1.26-.36c-.42-.13-.83-.27-1.24-.42l-.31-.1-1.22-.46L984,616l-.28-.13c-.4-.17-.79-.35-1.18-.54s-.78-.39-1.16-.59l-.28-.14c-.38-.21-.76-.41-1.13-.63s-.74-.46-1.11-.66l-.26-.17c-.36-.23-.73-.45-1.08-.7s-.71-.49-1.06-.74l-.25-.18-1-.78c-.33-.26-.67-.53-1-.81l-.23-.2-1-.84c-.32-.29-.63-.59-.94-.89l-.22-.21-.92-.92-.87-.95c-.07-.08-.14-.15-.2-.23-.29-.32-.57-.65-.84-1s-.55-.67-.81-1c-.06-.08-.17-.16-.23-.25a4,4,0,0,0-.81-1c0-.36-.46-.71-.69-1.07a39.27,39.27,0,0,1-3.49-6.52A51.5,51.5,0,0,1,978.36,584h.08l1.1-.49.06,0,1.07-.45.1,0,1-.41.14-.05,1-.37.17,0c.32-.12.66-.23,1-.33l.21-.08,1-.29.25-.07c.31-.1.63-.18.95-.27l.27-.07.17,0a22.45,22.45,0,0,1,11.33-41h3.3a22.21,22.21,0,0,1,11.21,40.52l.16,0,.26.07,1,.27.21.06,1,.3.18.06,1,.33.14.05,1,.37.1,0,1.07.41.06,0,1.1.44h0a50.33,50.33,0,0,1,16.06,11.07ZM923.47,515.23a50.88,50.88,0,0,1,23.8-13.81,22.61,22.61,0,0,1,11.4-41.25l1.33,0c.42,0,.91,0,1.33,0a22.61,22.61,0,0,1,11.4,41.25,50.88,50.88,0,0,1,23.8,13.81,39.66,39.66,0,0,1-73.06,0Zm-3.13,103a39.73,39.73,0,0,1-36.52-24.22,51,51,0,0,1,23.79-13.82A22.6,22.6,0,0,1,919,539h2.65a22.6,22.6,0,0,1,11.41,41.24,51,51,0,0,1,23.79,13.82A39.73,39.73,0,0,1,920.34,618.28Zm82-90.08a51,51,0,1,0-84.68,0A51,51,0,1,0,960,611.14a51,51,0,1,0,42.34-82.94Z"/>
      <path class="cls-3" d="M996.53,515.23a50.88,50.88,0,0,0-23.8-13.81,22.61,22.61,0,0,0-11.4-41.25l-1.33,0c-.42,0-.91,0-1.33,0a22.61,22.61,0,0,0-11.4,41.25,50.88,50.88,0,0,0-23.8,13.81,39.66,39.66,0,0,0,73.06,0Z"/>
    </g>
  </g>
</svg>
