<svg xmlns="http://www.w3.org/2000/svg" xmlns:xlink="http://www.w3.org/1999/xlink" width="1920" height="1080" viewBox="0 0 1920 1080">
  <defs>
    <style>
      .cls-1 {
        fill: none;
      }

      .cls-2 {
        fill: #f3f5f6;
      }

      .cls-3 {
        clip-path: url(#clip-path);
      }

      .cls-4 {
        fill: #8896a3;
      }

      .cls-5 {
        clip-path: url(#clip-path-3);
      }

      .cls-6 {
        fill: #c4cbd2;
      }

      .cls-7 {
        clip-path: url(#clip-path-5);
      }

      .cls-8 {
        fill: #8795a2;
      }
    </style>
    <clipPath id="clip-path">
      <rect class="cls-1" x="1164" y="827" width="228" height="28"/>
    </clipPath>
    <clipPath id="clip-path-3">
      <rect class="cls-1" x="1103" y="361" width="349" height="357"/>
    </clipPath>
    <clipPath id="clip-path-5">
      <rect class="cls-1" x="542" y="441" width="191" height="191"/>
    </clipPath>
  </defs>
  <title>shot_20</title>
  <g id="Layer_3" data-name="Layer 3">
    <rect class="cls-2" width="1920" height="1080"/>
    <g class="cls-3">
      <g class="cls-3">
        <path class="cls-4" d="M1168,852h4.61a9.64,9.64,0,0,0,5.35-1.26,4.45,4.45,0,0,0,1.9-4,3.89,3.89,0,0,0-1.86-3.6,10.19,10.19,0,0,0-5.39-1.18H1168Zm0-13h4.1c2.36,0,4.07-.41,5.11-1.23a4,4,0,0,0,1.56-3.34,3.72,3.72,0,0,0-1.64-3.42,9.34,9.34,0,0,0-4.86-1H1168Zm-4,15V828h7.82a17,17,0,0,1,3.65.36,8,8,0,0,1,2.85,1.11,4.93,4.93,0,0,1,1.84,2,5.67,5.67,0,0,1,.69,2.89,6.45,6.45,0,0,1-1,3.53A5.06,5.06,0,0,1,1177,840v.16a7,7,0,0,1,3.89,2,5.86,5.86,0,0,1,1.48,4.24,7.29,7.29,0,0,1-.72,3.33,6.49,6.49,0,0,1-2,2.38,9.4,9.4,0,0,1-3.17,1.42,16.07,16.07,0,0,1-4,.48Z"/>
        <polygon class="cls-4" points="1188 854 1188 828 1191 828 1191 851 1203 851 1203 854 1188 854"/>
        <path class="cls-4" d="M1215.91,851.75a6.59,6.59,0,0,0,3.16-.76,7.08,7.08,0,0,0,2.44-2.16,10.89,10.89,0,0,0,1.59-3.4,16.39,16.39,0,0,0,.57-4.48,15.7,15.7,0,0,0-.57-4.4,9.86,9.86,0,0,0-1.59-3.32,6.74,6.74,0,0,0-2.44-2.08,6.48,6.48,0,0,0-3.16-.76,6.69,6.69,0,0,0-3.2.76,7.09,7.09,0,0,0-2.44,2.08,10.22,10.22,0,0,0-1.56,3.32,15.71,15.71,0,0,0-.56,4.4,16.4,16.4,0,0,0,.56,4.48,11.32,11.32,0,0,0,1.56,3.4,7.46,7.46,0,0,0,2.44,2.16A6.81,6.81,0,0,0,1215.91,851.75Zm0,2.92a10.78,10.78,0,0,1-4.57-1,10.21,10.21,0,0,1-3.51-2.72,13.33,13.33,0,0,1-2.32-4.32,18.92,18.92,0,0,1-.8-5.72,18.12,18.12,0,0,1,.8-5.64,12.33,12.33,0,0,1,2.32-4.24,9.75,9.75,0,0,1,3.51-2.68,11.24,11.24,0,0,1,4.57-.92,10.49,10.49,0,0,1,4.52,1,9.72,9.72,0,0,1,3.55,2.68,11.57,11.57,0,0,1,2.33,4.24,17.67,17.67,0,0,1,.84,5.6,18.58,18.58,0,0,1-.84,5.72A12.46,12.46,0,0,1,1224,851a10.17,10.17,0,0,1-3.55,2.72A10.49,10.49,0,0,1,1215.91,854.67Z"/>
        <path class="cls-4" d="M1242.71,854.67a11.22,11.22,0,0,1-4.56-.92,10.74,10.74,0,0,1-3.64-2.64,13,13,0,0,1-2.4-4.28,18.45,18.45,0,0,1-.84-5.76,17.06,17.06,0,0,1,.88-5.68,12.51,12.51,0,0,1,2.44-4.28,10.34,10.34,0,0,1,3.68-2.68,11.11,11.11,0,0,1,4.64-1,8.47,8.47,0,0,1,4.2,1,10.69,10.69,0,0,1,3,2.24l-1.8,2.16a8.51,8.51,0,0,0-2.36-1.8,6.37,6.37,0,0,0-3-.68,7.45,7.45,0,0,0-3.4.76,7,7,0,0,0-2.6,2.12,10,10,0,0,0-1.68,3.32,16.14,16.14,0,0,0-.56,4.4,16.74,16.74,0,0,0,.56,4.48,10.74,10.74,0,0,0,1.64,3.36,7.24,7.24,0,0,0,2.52,2.16,7.58,7.58,0,0,0,3.4.76,7.18,7.18,0,0,0,3.36-.76,11,11,0,0,0,2.72-2.2l1.84,2.08a11.67,11.67,0,0,1-3.52,2.8A9.9,9.9,0,0,1,1242.71,854.67Z"/>
        <polygon class="cls-4" points="1256 854 1256 828 1259 828 1259 841 1259.11 841 1268.97 828 1272.36 828 1264.96 837.91 1273.52 854 1270.16 854 1263.08 840.48 1259 845.76 1259 854 1256 854"/>
        <path class="cls-4" d="M1291.51,854l-8.32-26h3.42l4.23,14.26c.48,1.59.9,3,1.24,4.39s.82,2.79,1.34,4.35h.15q.73-2.34,1.29-4.35l1.25-4.39,4.24-14.26h3.25l-8.24,26Z"/>
        <path class="cls-4" d="M1316.61,851.75a6.59,6.59,0,0,0,3.16-.76,7.08,7.08,0,0,0,2.44-2.16,10.91,10.91,0,0,0,1.6-3.4,16.8,16.8,0,0,0,.56-4.48,16.09,16.09,0,0,0-.56-4.4,9.87,9.87,0,0,0-1.6-3.32,6.74,6.74,0,0,0-2.44-2.08,6.48,6.48,0,0,0-3.16-.76,6.72,6.72,0,0,0-3.2.76,7.09,7.09,0,0,0-2.44,2.08,10.22,10.22,0,0,0-1.56,3.32,16.09,16.09,0,0,0-.56,4.4,16.8,16.8,0,0,0,.56,4.48,11.32,11.32,0,0,0,1.56,3.4,7.46,7.46,0,0,0,2.44,2.16A6.84,6.84,0,0,0,1316.61,851.75Zm0,2.92a10.77,10.77,0,0,1-4.56-1,10.34,10.34,0,0,1-3.52-2.72,13.33,13.33,0,0,1-2.32-4.32,19.24,19.24,0,0,1-.8-5.72,18.42,18.42,0,0,1,.8-5.64,12.33,12.33,0,0,1,2.32-4.24,9.87,9.87,0,0,1,3.52-2.68,11.22,11.22,0,0,1,4.56-.92,10.49,10.49,0,0,1,4.52,1,9.75,9.75,0,0,1,3.56,2.68,11.7,11.7,0,0,1,2.32,4.24,17.39,17.39,0,0,1,.84,5.6,18.28,18.28,0,0,1-.84,5.72,12.61,12.61,0,0,1-2.32,4.32,10.2,10.2,0,0,1-3.56,2.72A10.49,10.49,0,0,1,1316.61,854.67Z"/>
        <polygon class="cls-4" points="1338 854 1338 831 1330 831 1330 828 1349 828 1349 831 1341 831 1341 854 1338 854"/>
        <polygon class="cls-4" points="1354 854 1354 828 1369 828 1369 831 1357 831 1357 839 1367 839 1367 842 1357 842 1357 852 1370 852 1370 854 1354 854"/>
        <path class="cls-4" d="M1382.33,854.67a12.63,12.63,0,0,1-5.12-1,12.48,12.48,0,0,1-4.07-2.84l2-2.32a11.43,11.43,0,0,0,3.28,2.4,9.46,9.46,0,0,0,3.95.88,6.34,6.34,0,0,0,4.05-1.16,3.89,3.89,0,0,0,1.43-3.12,3.54,3.54,0,0,0-.36-1.68,3.12,3.12,0,0,0-.92-1.2,5.58,5.58,0,0,0-1.36-.92c-.53-.27-1.1-.55-1.72-.84l-3.76-1.64a19.7,19.7,0,0,1-1.88-1,7.82,7.82,0,0,1-1.71-1.36,6.4,6.4,0,0,1-1.24-1.88,6.84,6.84,0,0,1,.12-5.32,7,7,0,0,1,1.71-2.2,8,8,0,0,1,2.6-1.48,10.16,10.16,0,0,1,3.33-.52,10.39,10.39,0,0,1,4.36.92,10.68,10.68,0,0,1,3.4,2.32l-1.81,2.16a8.66,8.66,0,0,0-2.68-1.8,7.47,7.47,0,0,0-3.27-.68,5.69,5.69,0,0,0-3.57,1,3.3,3.3,0,0,0-1.31,2.8,3.45,3.45,0,0,0,.36,1.64,4.67,4.67,0,0,0,1,1.16,11.47,11.47,0,0,0,1.4.88c.51.24,1,.46,1.57.68l3.71,1.6a13.78,13.78,0,0,1,2.12,1.12,6.9,6.9,0,0,1,1.72,1.44,5.53,5.53,0,0,1,1.12,1.92,6.52,6.52,0,0,1,.44,2.52,6.73,6.73,0,0,1-.64,2.92,6.84,6.84,0,0,1-1.76,2.4,8.77,8.77,0,0,1-2.8,1.6A11.54,11.54,0,0,1,1382.33,854.67Z"/>
      </g>
    </g>
    <g class="cls-5">
      <g class="cls-5">
        <path class="cls-4" d="M1114.87,718H1219l2.93,0,16.79-25H1214v12h-23.17a22.41,22.41,0,0,0-36.65,0H1131V693h-8l-16.07,24Z"/>
        <path class="cls-6" d="M1172.26,634.36a25,25,0,1,1-25,24.95A25,25,0,0,1,1172.26,634.36ZM1154.18,705a22.06,22.06,0,0,1,36.65,0H1214V601h-20v.13a22.33,22.33,0,0,1-6.34,15.89,21.84,21.84,0,0,1-31.31,0,22.3,22.3,0,0,1-6.35-15.89V601h-19V705Z"/>
        <circle class="cls-4" cx="1172.26" cy="659.32" r="24.97"/>
        <path class="cls-4" d="M1327.72,718H1432l2.92,0,16.8-25H1427v12h-23.17a22.41,22.41,0,0,0-36.65,0H1344V693h-8l-16.07,24Z"/>
        <path class="cls-6" d="M1385.11,634.36a25,25,0,1,1-24.95,24.95A25,25,0,0,1,1385.11,634.36ZM1367.18,705a22.06,22.06,0,0,1,36.65,0H1427V601h-20v.13a22.34,22.34,0,0,1-6.35,15.89,21.83,21.83,0,0,1-31.3,0,22.3,22.3,0,0,1-6.35-15.89V601h-19V705Z"/>
        <circle class="cls-4" cx="1385.12" cy="659.32" r="24.97"/>
        <path class="cls-4" d="M1222.22,600H1327v-1l2.93,0,16.79-25H1321v12h-23.17a22.41,22.41,0,0,0-36.65,0H1238V574h-8.33l-16.73,25Z"/>
        <path class="cls-6" d="M1279.61,515.9a25,25,0,1,1-25,25A25,25,0,0,1,1279.61,515.9ZM1261.18,587a22.06,22.06,0,0,1,36.65,0H1321V483h-19v.13a22.3,22.3,0,0,1-6.35,15.89,21.84,21.84,0,0,1-31.31,0,22.33,22.33,0,0,1-6.34-15.89V483h-20V587Z"/>
        <path class="cls-4" d="M1297.27,523.21a25,25,0,1,1-35.31,0A25,25,0,0,1,1297.27,523.21Z"/>
        <path class="cls-4" d="M1113,479h104l2.93,0,16.79-25H1212v12h-23.17a22.41,22.41,0,0,0-36.65,0H1129V454h-8L1105,478Z"/>
        <path class="cls-6" d="M1170.41,395.59a25,25,0,1,1-25,25A25,25,0,0,1,1170.41,395.59ZM1152.18,466a22.06,22.06,0,0,1,36.65,0H1212V362h-20v.14a22.33,22.33,0,0,1-6.35,15.89,21.85,21.85,0,0,1-31.3,0,22.37,22.37,0,0,1-6.35-15.89V362h-19V466Z"/>
        <path class="cls-4" d="M1188.06,402.9a25,25,0,1,1-35.31,0A25,25,0,0,1,1188.06,402.9Z"/>
        <path class="cls-4" d="M1327.72,479H1432l2.92,0,16.8-25H1427v12h-23.17a22.41,22.41,0,0,0-36.65,0H1344V454h-8L1320,478Z"/>
        <path class="cls-6" d="M1385.11,395.59a25,25,0,1,1-24.95,25A25,25,0,0,1,1385.11,395.59ZM1367.18,466a22.06,22.06,0,0,1,36.65,0H1427V362h-20v.14a22.37,22.37,0,0,1-6.35,15.89,21.85,21.85,0,0,1-31.3,0,22.33,22.33,0,0,1-6.35-15.89V362h-19V466Z"/>
        <path class="cls-4" d="M1402.77,402.9a25,25,0,1,1-35.31,0A25,25,0,0,1,1402.77,402.9Z"/>
      </g>
    </g>
    <g class="cls-7">
      <g class="cls-7">
        <rect class="cls-8" x="543" y="510" width="89" height="12"/>
        <polygon class="cls-6" points="632 552.02 632 522 543 522 543 564 632 564 632 552.02"/>
        <rect class="cls-8" x="643" y="510" width="89" height="12"/>
        <polygon class="cls-6" points="732 552.02 732 522 643 522 643 564 732 564 732 552.02"/>
        <rect class="cls-8" x="543" y="578" width="89" height="12"/>
        <polygon class="cls-6" points="543 619.92 543 632 632 632 632 590 543 590 543 619.92"/>
        <rect class="cls-8" x="643" y="578" width="89" height="12"/>
        <polygon class="cls-6" points="732 619.92 732 590 643 590 643 632 732 632 732 619.92"/>
        <rect class="cls-8" x="543" y="442" width="189" height="12"/>
        <polygon class="cls-6" points="732 483.33 732 454 543 454 543 495 732 495 732 483.33"/>
      </g>
    </g>
  </g>
</svg>
