<svg xmlns="http://www.w3.org/2000/svg" xmlns:xlink="http://www.w3.org/1999/xlink" width="1920" height="1080" viewBox="0 0 1920 1080">
  <defs>
    <style>
      .cls-1 {
        fill: none;
      }

      .cls-2 {
        isolation: isolate;
      }

      .cls-3 {
        clip-path: url(#clip-path);
      }

      .cls-4 {
        fill: #f9fafa;
      }

      .cls-5 {
        font-size: 40px;
        font-family: SourceSansPro-Regular, Source Sans Pro;
      }

      .cls-11, .cls-5 {
        fill: #8795a2;
      }

      .cls-6 {
        letter-spacing: -0.01em;
      }

      .cls-7 {
        letter-spacing: -0.03em;
      }

      .cls-8 {
        letter-spacing: 0em;
      }

      .cls-9 {
        letter-spacing: -0.02em;
      }

      .cls-10 {
        fill: #c4cbd2;
      }
    </style>
    <clipPath id="clip-path">
      <rect class="cls-1" width="1920" height="1080"/>
    </clipPath>
  </defs>
  <title>shot_43</title>
  <g id="Layer_3" data-name="Layer 3">
    <g class="cls-2">
      <g class="cls-3">
        <g class="cls-2">
          <g class="cls-3">
            <g class="cls-3">
              <rect class="cls-4" width="1920" height="1080"/>
            </g>
          </g>
          <text class="cls-5" transform="translate(736.75 836.78)">DECRED.ORG<tspan class="cls-6" x="220.92" y="0">/</tspan><tspan class="cls-7" x="234.48" y="0">C</tspan><tspan class="cls-8" x="256.16" y="0">OMMUNI</tspan><tspan class="cls-9" x="403.07" y="0">T</tspan><tspan x="423.91" y="0">Y</tspan></text>
          <path class="cls-10" d="M1036.69,417h0c-.5-.21-1-.42-1.5-.61l-.09,0-1.46-.57-.14,0-1.43-.51-.19-.07-1.4-.46-.24-.08-1.36-.41-.29-.09-1.32-.36-.35-.1-.23-.06A30.47,30.47,0,0,0,1011.28,358h-2.61a30.1,30.1,0,0,0-15.18,54.93l-.22.06-.37.1c-.43.11-.86.22-1.28.35l-.33.1-1.3.39-.28.1c-.45.13-.9.28-1.34.44l-.23.08-1.37.49-.19.07-1.4.54-.12.06c-.49.19-1,.39-1.44.6l-.08,0c-.49.22-1,.43-1.46.66h.07a66.31,66.31,0,0,0-10.31,5.92,67.43,67.43,0,0,0-9.69,8.24,52.42,52.42,0,0,0,4.52,8.5c.31.47.9.93.9,1.4a4.6,4.6,0,0,1,1,1.35c.09.11.2.21.28.31.34.45.71.89,1.06,1.32s.73.86,1.1,1.28l.27.3c.37.41.76.83,1.15,1.24s.77.8,1.19,1.19l.29.28c.4.4.81.78,1.22,1.15s.83.74,1.26,1.11l.3.26c.43.36.86.71,1.31,1.06s.88.68,1.33,1l.33.24c.45.33.92.65,1.38,1s.93.6,1.4.91l.35.22c.48.29.95.6,1.44.86s1,.55,1.47.82l.37.19c.49.26,1,.52,1.51.76s1,.48,1.53.7l.38.17c.52.23,1,.45,1.57.66s1.06.41,1.59.6l.4.13c.54.2,1.08.38,1.63.54s1.08.33,1.63.48l.41.12,1.67.41c.56.13,1.12.25,1.69.36l.42.08c.6.11,1.15.21,1.72.29s1.15.17,1.73.24c.14,0,.29-.09.44-.07a14.61,14.61,0,0,0,1.75.05c.6,0,1.19.2,1.79.22.15,0,.3.07.45.08.59,0,1.19.06,1.79.06h1.86s.31.24.45.23c.6,0,1.2-.21,1.8-.21a1.71,1.71,0,0,1,1.76,1h.44a1.92,1.92,0,0,1,1.73-1.23c.6-.09,1.15-.19,1.72-.3.15,0,.29-.17.43-.19.57-.12,1.13.12,1.69-.48a6.31,6.31,0,0,0,1.68-.31c.14,0,.28,0,.41,0,.56-.16,1.11-.28,1.65-.45l1.63-.53.39-.14c1.08-.4,2.14-.82,3.18-1.25l.38-.17c1-.46,2.06-1,3.06-1.48l.36-.18c1-.54,2-1.1,2.94-1.7l.35-.21c.95-.59,1.89-1.23,2.8-1.9l.32-.23c.9-.66,1.79-1.36,2.65-2.08l.31-.26c.85-.73,1.68-1.48,2.49-2.27l.29-.28,1.2-1.19c.39-.41.76-.83,1.14-1.24l.27-.31q.54-.61,1.08-1.26c.36-.43.71-.87,1-1.31l.26-.33,1-1.32v.94l1-1.41.23-.36c.31-.46.61-.93.89-1.4l0-.06c.29-.48.61-1,.86-1.47l.21-.39c.27-.48.53-.95.78-1.44l0-.08c.26-.5.51-1,.75-1.53.07-.14.13-.28.19-.42.23-.48.46-1,.67-1.46l0-.1A69,69,0,0,0,1036.69,417Z"/>
          <path class="cls-10" d="M935.43,388.81A29.86,29.86,0,0,0,907.32,359h-2.14l-2.73.11a29.85,29.85,0,0,0-13.7,54.36,67.31,67.31,0,0,0-31.43,18.26,52.38,52.38,0,0,0,96.49,0,67.23,67.23,0,0,0-31.42-18.26A29.82,29.82,0,0,0,935.43,388.81Z"/>
          <path class="cls-11" d="M1058.57,431l0,.09c-.21.49-.42,1-.65,1.44-.06.14-.12.28-.19.42-.24.5-.48,1-.73,1.5l0,.07c-.25.49-.51,1-.76,1.42l-.22.39c-.27.48-.55,1-.85,1.45l0,.05c-.28.46-.6.92-.87,1.38l-.23.35-1,1.39v.45s-.63.89-1,1.32l-.25.33c-.34.44-.69.88-1,1.31s-.71.85-1.07,1.26l-.27.31c-.38.41-.76.83-1.15,1.24s-.78.79-1.2,1.19l-.28.28a33.45,33.45,0,0,1-2.5,2.27l-.31.26c-.86.72-1.74,1.42-2.65,2.09l-.32.22c-.91.67-1.85,1.3-2.8,1.9l-.34.21c-1,.6-1.94,1.16-2.94,1.7l-.36.19c-1,.52-2,1-3.07,1.47l-.38.17c-1,.45-2.09.87-3.17,1.25l-.4.14-1.62.54-1.65.48c-.14,0-.28-.05-.42,0a6.73,6.73,0,0,1-1.67.3c-.57.6-1.13.37-1.7.48-.14,0-.28.12-.42.14-.6.11-1.14.24-1.73.33s-1.15.17-1.73.24a3.18,3.18,0,0,0-.43-.06c-.59,0-1.18.06-1.77.05s-1.2.2-1.79.22c-.15,0-.3.07-.45.08a3.44,3.44,0,0,1-1.8-.27h-1.79c-.15.33-.31.21-.46.2-.59,0-1.19-.22-1.79-.22a5,5,0,0,0-1.76,1h.14c-.62-.06-1.19-.12-1.78-.21s-1.19-.19-1.78-.3l-.43-.08c-.59-.11-1.16-.23-1.74-.36l-1.72-.44-.42-.11c-.57-.16-1.14-.32-1.69-.49s-1.12-.36-1.67-.56l-.42-.14c-.54-.19-1.09-.4-1.63-.61s-1.09-.45-1.62-.68l-.39-.17c-.53-.23-1.06-.47-1.58-.72s-1.05-.52-1.55-.79l-.38-.2c-.51-.27-1-.55-1.51-.83s-1-.62-1.49-.9l-.36-.22c-.49-.31-1-.61-1.45-.94l-1.42-1-.34-.25c-.46-.33-.92-.68-1.37-1s-.91-.72-1.35-1.1l-.32-.26c-.43-.38-.86-.75-1.29-1.14s-.84-.78-1.26-1.19l-.29-.28c-.47-.46-.93-.93-1.42-1.42-.24-.24-.69-.76-.92-1s-.23-.25-.34-.39c-.38-.42-.76-.86-1.12-1.3s-.73-.91-1.09-1.37c-.08-.1-.22-.21-.31-.32a5.41,5.41,0,0,0-1.08-1.39c0-.48-.62-1-.94-1.44a53.76,53.76,0,0,1-4.68-8.76,69.83,69.83,0,0,1,10-8.49,68.42,68.42,0,0,1,10.64-6.1h0l1.47-.65.08,0,1.44-.61.12-.05,1.41-.54.19-.07,1.36-.49.23-.08c.44-.16.89-.31,1.33-.44l.29-.1,1.3-.39.33-.1c.42-.13.85-.24,1.28-.35l.37-.1.22-.06A30.1,30.1,0,0,1,1008.75,358H1012a30,30,0,0,1,15.11,54.65l.22.06.34.09c.44.12.88.23,1.31.36l.28.08,1.34.41.24.08,1.37.45.19.07,1.4.5.14.05,1.44.56.09,0,1.47.6h0a67.61,67.61,0,0,1,21.66,14.93ZM909.7,326.65a67.21,67.21,0,0,1,31.43-18.25,29.86,29.86,0,0,1,15.06-54.48c.6,0,1.2,0,1.76,0s1.2,0,1.75,0a29.86,29.86,0,0,1,15.07,54.48,67.13,67.13,0,0,1,31.42,18.25,52.37,52.37,0,0,1-96.49,0Zm-4.13,137.06a52.47,52.47,0,0,1-48.25-32,67.31,67.31,0,0,1,31.43-18.26A29.85,29.85,0,0,1,903.81,359h1.88l4.23.27a29.86,29.86,0,0,1,12.47,54.2,67.23,67.23,0,0,1,31.42,18.26A52.45,52.45,0,0,1,905.57,463.71Zm108.3-119.93a67.34,67.34,0,1,0-111.84,0A67.34,67.34,0,1,0,958,453.33a67.34,67.34,0,1,0,55.92-109.55Z"/>
          <path class="cls-10" d="M1006.19,326.65a67.13,67.13,0,0,0-31.42-18.25,29.86,29.86,0,0,0-15.07-54.48c-.6,0-1.19,0-1.75,0s-1.2,0-1.76,0a29.86,29.86,0,0,0-15.06,54.48,67.21,67.21,0,0,0-31.43,18.25,52.37,52.37,0,0,0,96.49,0Z"/>
        </g>
      </g>
    </g>
  </g>
</svg>
