<svg xmlns="http://www.w3.org/2000/svg" width="1920" height="1080" viewBox="0 0 1920 1080">
  <defs>
    <style>
      .cls-1 {
        fill: #f3f5f6;
      }

      .cls-2 {
        isolation: isolate;
      }

      .cls-3 {
        fill: #41be53;
      }

      .cls-4 {
        fill: #8795a2;
      }

      .cls-5 {
        fill: #c4cbd2;
      }

      .cls-6 {
        fill: #8795a3;
      }
    </style>
  </defs>
  <title>shot_33</title>
  <g id="Layer_3" data-name="Layer 3">
    <rect class="cls-1" width="1920" height="1080"/>
    <g class="cls-2">
      <path class="cls-3" d="M1048.08,477a115.24,115.24,0,0,0-10.69-13.52l-11.71,10.9a93.3,93.3,0,0,1,9.17,11.6Z"/>
      <path class="cls-3" d="M955.07,443.49A95.66,95.66,0,0,1,1002.49,456l8-13.91a112.48,112.48,0,0,0-99.75-5.53l6.41,14.75A95.73,95.73,0,0,1,955.07,443.49Z"/>
      <path class="cls-3" d="M1084.6,542.73,1059,517.09l-25.64,25.64,11.34,11.36,6.22-6.22A96.17,96.17,0,1,1,892.14,467l-10.49-12.12A112.18,112.18,0,1,0,1067,547.79l6.25,6.29Z"/>
      <path class="cls-4" d="M897.25,825.25,853,781h47.66l71,71H924.32c-16.9,0-33.25,13.6-35.62,30.33A35.53,35.53,0,0,0,923.84,923h17.82l35,35H924.49c-38.37,0-71-31.38-71.48-69.74C852.66,859.06,866.79,835.47,897.25,825.25Z"/>
      <path class="cls-5" d="M1021.08,913.75,1065.33,958h-47.67l-71-71h47.83a35.5,35.5,0,0,0,0-71H976.67l-35-35h52.18c38.37,0,71,31.38,71.48,69.74C1065.68,879.94,1051.54,903.53,1021.08,913.75Z"/>
      <path class="cls-6" d="M858.18,135.82a3.1,3.1,0,0,1,.09-.61C858.25,135.41,858.2,135.61,858.18,135.82Z"/>
      <path class="cls-5" d="M874.74,149H1026V137.81A16.87,16.87,0,0,0,1009.19,121H874.74a16.86,16.86,0,0,0-16.59,14A16.86,16.86,0,0,0,874.74,149Z"/>
      <path class="cls-6" d="M858.1,136.51a4.52,4.52,0,0,1,.06-.53Z"/>
      <path class="cls-6" d="M858.05,137.24a1.89,1.89,0,0,1,0-.41C858.07,137,858.06,137.09,858.05,137.24Z"/>
      <path class="cls-5" d="M1019,219.07a35,35,0,0,0,35,35v-70A35,35,0,0,0,1019,219.07Z"/>
      <path class="cls-4" d="M1037.28,149H874.83s-15.18-5.72-16.58-13.8a1.14,1.14,0,0,1-.25.61V136a.57.57,0,0,1,.1.52c0,.18,0,.22,0,.33s.9.41.9.41V272.17A16.83,16.83,0,0,0,875.72,289h161.56A16.83,16.83,0,0,0,1054,272.17V254.08A34.71,34.71,0,0,1,1029.09,244a35.25,35.25,0,0,1,0-49.9A34.75,34.75,0,0,1,1054,183.94V165.83A16.83,16.83,0,0,0,1037.28,149Z"/>
    </g>
  </g>
</svg>
