<svg xmlns="http://www.w3.org/2000/svg" xmlns:xlink="http://www.w3.org/1999/xlink" width="1920" height="1080" viewBox="0 0 1920 1080">
  <defs>
    <style>
      .cls-1 {
        fill: none;
      }

      .cls-2 {
        isolation: isolate;
      }

      .cls-3 {
        clip-path: url(#clip-path);
      }

      .cls-4 {
        fill: #f3f5f6;
      }

      .cls-5 {
        fill: #c4cbd2;
      }

      .cls-6 {
        fill: #8795a2;
      }
    </style>
    <clipPath id="clip-path">
      <rect class="cls-1" width="1920" height="1080"/>
    </clipPath>
  </defs>
  <title>shot_38</title>
  <g id="Layer_3" data-name="Layer 3">
    <g class="cls-2">
      <g class="cls-3">
        <g class="cls-2">
          <g class="cls-3">
            <g class="cls-3">
              <rect class="cls-4" width="1920" height="1080"/>
            </g>
          </g>
          <path class="cls-5" d="M990.45,364a50.07,50.07,0,1,0-60.65,0,114.49,114.49,0,0,0-59.73,39.78,100.26,100.26,0,0,0,180.13,0A114.54,114.54,0,0,0,990.45,364Z"/>
          <path class="cls-6" d="M1031,430.72a100.26,100.26,0,0,1-160.89-26.94A114.51,114.51,0,0,1,929.83,364a50.07,50.07,0,1,1,60.65,0,114.48,114.48,0,0,1,59.75,39.78A100.68,100.68,0,0,1,1031,430.72ZM960.14,245.47a114.45,114.45,0,1,0,114.44,114.45A114.44,114.44,0,0,0,960.14,245.47Z"/>
          <path class="cls-6" d="M1099.68,625.44a20.72,20.72,0,1,1-24-16.75A20.71,20.71,0,0,1,1099.68,625.44Z"/>
          <path class="cls-6" d="M1008,628.67l.56.41-.56.41ZM1070.26,712H849.33A18.32,18.32,0,0,1,831,693.75V657.26A18.32,18.32,0,0,1,849.34,639H996v17.67l36.76-27.5L996,601.67V620H849.61A36.65,36.65,0,0,0,813,656.67v36.66A36.65,36.65,0,0,0,849.61,730h221A18.35,18.35,0,0,1,1089,748.25v36.5A18.34,18.34,0,0,1,1070.6,803H886v19h184.26A36.71,36.71,0,0,0,1107,785.33V748.67A36.71,36.71,0,0,0,1070.26,712Z"/>
          <path class="cls-5" d="M1079.29,615.31a13.78,13.78,0,1,1-9.75,4A13.77,13.77,0,0,1,1079.29,615.31Zm-27.4,13.86a27.57,27.57,0,0,0,54.25,6.8,28.35,28.35,0,0,0,.86-6.8v-.77a29.09,29.09,0,0,0-.84-6.07.5.5,0,0,1,0-.12,27.56,27.56,0,0,0-53.37,0,1,1,0,0,0,0,.18,27.59,27.59,0,0,0-.83,6.71Z"/>
          <path class="cls-5" d="M864.53,812.77a24.06,24.06,0,1,1-24.06-24.07A24.06,24.06,0,0,1,864.53,812.77Z"/>
          <path class="cls-6" d="M840.47,799a13.77,13.77,0,1,1-13.77,13.74A13.78,13.78,0,0,1,840.47,799ZM813,812.86a27.51,27.51,0,0,0,54.14,6.79,28.27,28.27,0,0,0,.86-6.79v-.12a27.88,27.88,0,0,0-.79-6.69v-.19a27.5,27.5,0,0,0-53.25,0,.6.6,0,0,0,0,.19,27,27,0,0,0-1,6.69Z"/>
        </g>
      </g>
    </g>
  </g>
</svg>
