<svg xmlns="http://www.w3.org/2000/svg" xmlns:xlink="http://www.w3.org/1999/xlink" width="1920" height="1080" viewBox="0 0 1920 1080">
  <defs>
    <style>
      .cls-1 {
        opacity: 0.99;
      }

      .cls-2 {
        fill: none;
      }

      .cls-3 {
        isolation: isolate;
      }

      .cls-4 {
        clip-path: url(#clip-path);
      }

      .cls-5 {
        mask: url(#mask);
      }

      .cls-6 {
        fill: #f3f5f6;
      }

      .cls-7 {
        mask: url(#mask-2);
      }

      .cls-8 {
        clip-path: url(#clip-path-4);
      }

      .cls-9 {
        fill: #8795a2;
      }

      .cls-10 {
        fill: #c4cbd2;
      }

      .cls-11 {
        mask: url(#mask-3);
      }

      .cls-12 {
        clip-path: url(#clip-path-6);
      }

      .cls-13 {
        fill: #8896a3;
      }

      .cls-14 {
        mask: url(#mask-4);
      }

      .cls-15 {
        clip-path: url(#clip-path-8);
      }

      .cls-16 {
        clip-path: url(#clip-path-10);
      }
    </style>
    <clipPath id="clip-path">
      <rect class="cls-2" width="1920" height="1080"/>
    </clipPath>
    <mask id="mask" x="0" y="0" width="1920" height="1080" maskUnits="userSpaceOnUse">
      <rect class="cls-1" width="1920" height="1080"/>
    </mask>
    <mask id="mask-2" x="542.67" y="441.33" width="190.67" height="190.67" maskUnits="userSpaceOnUse">
      <rect class="cls-1" x="542.67" y="441.33" width="190.67" height="190.67"/>
    </mask>
    <clipPath id="clip-path-4">
      <rect class="cls-2" x="542.67" y="441.33" width="190.67" height="190.67"/>
    </clipPath>
    <mask id="mask-3" x="1102.67" y="361.33" width="349.33" height="357.33" maskUnits="userSpaceOnUse">
      <rect class="cls-1" x="1102.67" y="361.33" width="349.33" height="357.33"/>
    </mask>
    <clipPath id="clip-path-6">
      <rect class="cls-2" x="1102.67" y="361.33" width="349.33" height="357.33"/>
    </clipPath>
    <mask id="mask-4" x="1164" y="826.67" width="228" height="28" maskUnits="userSpaceOnUse">
      <rect class="cls-1" x="1164" y="826.67" width="228" height="28"/>
    </mask>
    <clipPath id="clip-path-8">
      <rect class="cls-2" x="1164" y="826.67" width="228" height="28"/>
    </clipPath>
    <clipPath id="clip-path-10">
      <rect class="cls-2" x="542" y="441" width="191" height="191"/>
    </clipPath>
  </defs>
  <title>shot_19</title>
  <g id="Layer_3" data-name="Layer 3">
    <g class="cls-3">
      <g class="cls-4">
        <g class="cls-3">
          <g class="cls-5">
            <g class="cls-3">
              <g class="cls-4">
                <g class="cls-4">
                  <rect class="cls-6" width="1920" height="1080"/>
                </g>
              </g>
            </g>
          </g>
          <g class="cls-7">
            <g class="cls-3">
              <g class="cls-8">
                <g class="cls-8">
                  <rect class="cls-9" x="542.83" y="510.21" width="89.04" height="11.84"/>
                  <polygon class="cls-10" points="631.88 551.84 631.88 522.06 542.83 522.06 542.83 563.74 631.88 563.74 631.88 551.84"/>
                  <rect class="cls-9" x="643.71" y="510.21" width="88.56" height="11.84"/>
                  <polygon class="cls-10" points="732.28 551.84 732.28 522.06 643.71 522.06 643.71 563.74 732.28 563.74 732.28 551.84"/>
                  <rect class="cls-9" x="542.83" y="578.41" width="89.04" height="11.84"/>
                  <polygon class="cls-10" points="542.83 619.94 542.83 631.93 631.88 631.93 631.88 590.25 542.83 590.25 542.83 619.94"/>
                  <rect class="cls-9" x="643.71" y="578.41" width="88.56" height="11.84"/>
                  <polygon class="cls-10" points="732.28 619.94 732.28 590.25 643.71 590.25 643.71 631.93 732.28 631.93 732.28 619.94"/>
                  <rect class="cls-9" x="542.83" y="442.48" width="189.44" height="11.84"/>
                  <polygon class="cls-10" points="732.28 483.8 732.28 454.32 542.83 454.32 542.83 495.53 732.28 495.53 732.28 483.8"/>
                </g>
              </g>
            </g>
          </g>
          <g class="cls-11">
            <g class="cls-3">
              <g class="cls-12">
                <g class="cls-12">
                  <path class="cls-13" d="M1114.87,717.7h104.44v-.07l2.92,0,16.76-25h-25V705h-23.29a22.21,22.21,0,0,0-36.83,0h-23.3V692.68h-8.34l-16.77,25Z"/>
                  <path class="cls-10" d="M1172.26,634.36a25,25,0,1,1-25,24.95A25,25,0,0,1,1172.26,634.36ZM1153.85,705a22.21,22.21,0,0,1,36.83,0H1214V600.92h-19.49v.13a22.22,22.22,0,1,1-44.43,0v-.13h-19.5V705Z"/>
                  <circle class="cls-13" cx="1172.26" cy="659.32" r="24.97"/>
                  <path class="cls-13" d="M1327.72,717.7h104.45v-.07l2.91,0,16.77-25h-25V705h-23.29a22.22,22.22,0,0,0-36.84,0h-23.29V692.68h-8.34l-16.77,25Z"/>
                  <path class="cls-10" d="M1385.11,634.36a25,25,0,1,1-24.95,24.95A25,25,0,0,1,1385.11,634.36ZM1366.7,705a22.22,22.22,0,0,1,36.84,0h23.29V600.92h-19.49v.13a22.22,22.22,0,1,1-44.44,0v-.13h-19.49V705Z"/>
                  <circle class="cls-13" cx="1385.12" cy="659.32" r="24.97"/>
                  <path class="cls-13" d="M1222.22,599.25h104.44v-.08l2.92,0,16.77-25h-25v12.34H1298a22.24,22.24,0,0,0-36.84,0h-23.29V574.22h-8.35l-16.76,25Z"/>
                  <path class="cls-10" d="M1279.61,515.9a25,25,0,1,1-25,25A25,25,0,0,1,1279.61,515.9Zm-18.41,70.66a22.24,22.24,0,0,1,36.84,0h23.28V482.46h-19.49v.13a22.22,22.22,0,1,1-44.43,0v-.13h-19.49v104.1Z"/>
                  <path class="cls-13" d="M1297.27,523.21a25,25,0,1,1-35.31,0A25,25,0,0,1,1297.27,523.21Z"/>
                  <path class="cls-13" d="M1113,478.93h104.44v-.07l2.92,0,16.77-25h-25v12.34h-23.29a22.23,22.23,0,0,0-36.83,0h-23.3V453.91h-8.34l-16.77,25Z"/>
                  <path class="cls-10" d="M1170.41,395.59a25,25,0,1,1-25,25A25,25,0,0,1,1170.41,395.59ZM1152,466.25a22.23,22.23,0,0,1,36.83,0h23.29V362.15h-19.49v.14a22.22,22.22,0,1,1-44.44,0v-.14H1128.7v104.1Z"/>
                  <path class="cls-13" d="M1188.06,402.9a25,25,0,1,1-35.31,0A25,25,0,0,1,1188.06,402.9Z"/>
                  <path class="cls-13" d="M1327.72,478.93h104.45v-.07l2.91,0,16.77-25h-25v12.34h-23.29a22.24,22.24,0,0,0-36.84,0h-23.29V453.91h-8.34l-16.77,25Z"/>
                  <path class="cls-10" d="M1385.11,395.59a25,25,0,1,1-24.95,25A25,25,0,0,1,1385.11,395.59Zm-18.41,70.66a22.24,22.24,0,0,1,36.84,0h23.29V362.15h-19.49v.14a22.22,22.22,0,1,1-44.44,0v-.14h-19.49v104.1Z"/>
                  <path class="cls-13" d="M1402.77,402.9a25,25,0,1,1-35.31,0A25,25,0,0,1,1402.77,402.9Z"/>
                </g>
              </g>
            </g>
          </g>
          <g class="cls-14">
            <g class="cls-3">
              <g class="cls-15">
                <g class="cls-15">
                  <path class="cls-13" d="M1167.59,851.55h4.56a9.5,9.5,0,0,0,5.28-1.24,4.41,4.41,0,0,0,1.88-3.92,3.84,3.84,0,0,0-1.84-3.56,10,10,0,0,0-5.32-1.16h-4.56Zm0-12.44h3.88c2.24,0,3.86-.39,4.84-1.16a3.79,3.79,0,0,0,1.48-3.16,3.5,3.5,0,0,0-1.56-3.24,8.72,8.72,0,0,0-4.59-1h-4.05Zm-3.32,15.08V828h7.8a16.94,16.94,0,0,1,3.64.36,8.23,8.23,0,0,1,2.84,1.12,5.05,5.05,0,0,1,1.84,2,5.76,5.76,0,0,1,.68,2.92,6.55,6.55,0,0,1-1,3.56,5,5,0,0,1-2.84,2.16v.16a6.85,6.85,0,0,1,3.88,2,5.94,5.94,0,0,1,1.48,4.28,7.42,7.42,0,0,1-.72,3.36,6.56,6.56,0,0,1-2,2.4,9.28,9.28,0,0,1-3.16,1.44,15.91,15.91,0,0,1-4,.48Z"/>
                  <polygon class="cls-13" points="1187.79 854.19 1187.79 827.95 1191.11 827.95 1191.11 851.35 1202.59 851.35 1202.59 854.19 1187.79 854.19"/>
                  <path class="cls-13" d="M1215.91,851.75a6.59,6.59,0,0,0,3.16-.76,7.08,7.08,0,0,0,2.44-2.16,10.89,10.89,0,0,0,1.59-3.4,16.39,16.39,0,0,0,.57-4.48,15.7,15.7,0,0,0-.57-4.4,9.86,9.86,0,0,0-1.59-3.32,6.74,6.74,0,0,0-2.44-2.08,6.48,6.48,0,0,0-3.16-.76,6.69,6.69,0,0,0-3.2.76,7.09,7.09,0,0,0-2.44,2.08,10.22,10.22,0,0,0-1.56,3.32,15.71,15.71,0,0,0-.56,4.4,16.4,16.4,0,0,0,.56,4.48,11.32,11.32,0,0,0,1.56,3.4,7.46,7.46,0,0,0,2.44,2.16A6.81,6.81,0,0,0,1215.91,851.75Zm0,2.92a10.78,10.78,0,0,1-4.57-1,10.21,10.21,0,0,1-3.51-2.72,13.33,13.33,0,0,1-2.32-4.32,18.92,18.92,0,0,1-.8-5.72,18.12,18.12,0,0,1,.8-5.64,12.33,12.33,0,0,1,2.32-4.24,9.75,9.75,0,0,1,3.51-2.68,11.24,11.24,0,0,1,4.57-.92,10.49,10.49,0,0,1,4.52,1,9.72,9.72,0,0,1,3.55,2.68,11.57,11.57,0,0,1,2.33,4.24,17.67,17.67,0,0,1,.84,5.6,18.58,18.58,0,0,1-.84,5.72A12.46,12.46,0,0,1,1224,851a10.17,10.17,0,0,1-3.55,2.72A10.49,10.49,0,0,1,1215.91,854.67Z"/>
                  <path class="cls-13" d="M1242.71,854.67a11.22,11.22,0,0,1-4.56-.92,10.74,10.74,0,0,1-3.64-2.64,13,13,0,0,1-2.4-4.28,18.45,18.45,0,0,1-.84-5.76,17.06,17.06,0,0,1,.88-5.68,12.51,12.51,0,0,1,2.44-4.28,10.34,10.34,0,0,1,3.68-2.68,11.11,11.11,0,0,1,4.64-1,8.47,8.47,0,0,1,4.2,1,10.69,10.69,0,0,1,3,2.24l-1.8,2.16a8.51,8.51,0,0,0-2.36-1.8,6.37,6.37,0,0,0-3-.68,7.45,7.45,0,0,0-3.4.76,7,7,0,0,0-2.6,2.12,10,10,0,0,0-1.68,3.32,16.14,16.14,0,0,0-.56,4.4,16.74,16.74,0,0,0,.56,4.48,10.74,10.74,0,0,0,1.64,3.36,7.24,7.24,0,0,0,2.52,2.16,7.58,7.58,0,0,0,3.4.76,7.18,7.18,0,0,0,3.36-.76,11,11,0,0,0,2.72-2.2l1.84,2.08a11.67,11.67,0,0,1-3.52,2.8A9.9,9.9,0,0,1,1242.71,854.67Z"/>
                  <polygon class="cls-13" points="1255.6 854.19 1255.6 827.95 1258.92 827.95 1258.92 841.11 1259.04 841.11 1269.96 827.95 1273.72 827.95 1265.52 837.95 1275 854.19 1271.28 854.19 1263.44 840.55 1258.92 845.87 1258.92 854.19 1255.6 854.19"/>
                  <path class="cls-13" d="M1291.49,854.19l-8.4-26.24h3.57l4.19,14.16c.48,1.57.9,3,1.24,4.36s.82,2.77,1.33,4.32h.15c.49-1.55.91-3,1.28-4.32s.79-2.79,1.24-4.36L1300.3,828h3.39l-8.32,26.24Z"/>
                  <path class="cls-13" d="M1316.61,851.75a6.59,6.59,0,0,0,3.16-.76,7.08,7.08,0,0,0,2.44-2.16,10.91,10.91,0,0,0,1.6-3.4,16.8,16.8,0,0,0,.56-4.48,16.09,16.09,0,0,0-.56-4.4,9.87,9.87,0,0,0-1.6-3.32,6.74,6.74,0,0,0-2.44-2.08,6.48,6.48,0,0,0-3.16-.76,6.72,6.72,0,0,0-3.2.76,7.09,7.09,0,0,0-2.44,2.08,10.22,10.22,0,0,0-1.56,3.32,16.09,16.09,0,0,0-.56,4.4,16.8,16.8,0,0,0,.56,4.48,11.32,11.32,0,0,0,1.56,3.4,7.46,7.46,0,0,0,2.44,2.16A6.84,6.84,0,0,0,1316.61,851.75Zm0,2.92a10.77,10.77,0,0,1-4.56-1,10.34,10.34,0,0,1-3.52-2.72,13.33,13.33,0,0,1-2.32-4.32,19.24,19.24,0,0,1-.8-5.72,18.42,18.42,0,0,1,.8-5.64,12.33,12.33,0,0,1,2.32-4.24,9.87,9.87,0,0,1,3.52-2.68,11.22,11.22,0,0,1,4.56-.92,10.49,10.49,0,0,1,4.52,1,9.75,9.75,0,0,1,3.56,2.68,11.7,11.7,0,0,1,2.32,4.24,17.39,17.39,0,0,1,.84,5.6,18.28,18.28,0,0,1-.84,5.72,12.61,12.61,0,0,1-2.32,4.32,10.2,10.2,0,0,1-3.56,2.72A10.49,10.49,0,0,1,1316.61,854.67Z"/>
                  <polygon class="cls-13" points="1337.99 854.19 1337.99 830.75 1330.07 830.75 1330.07 827.95 1349.28 827.95 1349.28 830.75 1341.36 830.75 1341.36 854.19 1337.99 854.19"/>
                  <polygon class="cls-13" points="1353.96 854.19 1353.96 827.95 1369.08 827.95 1369.08 830.75 1357.28 830.75 1357.28 838.99 1367.24 838.99 1367.24 841.83 1357.28 841.83 1357.28 851.35 1369.48 851.35 1369.48 854.19 1353.96 854.19"/>
                  <path class="cls-13" d="M1382.33,854.67a12.63,12.63,0,0,1-5.12-1,12.48,12.48,0,0,1-4.07-2.84l2-2.32a11.43,11.43,0,0,0,3.28,2.4,9.46,9.46,0,0,0,3.95.88,6.34,6.34,0,0,0,4.05-1.16,3.89,3.89,0,0,0,1.43-3.12,3.54,3.54,0,0,0-.36-1.68,3.12,3.12,0,0,0-.92-1.2,5.58,5.58,0,0,0-1.36-.92c-.53-.27-1.1-.55-1.72-.84l-3.76-1.64a19.7,19.7,0,0,1-1.88-1,7.82,7.82,0,0,1-1.71-1.36,6.4,6.4,0,0,1-1.24-1.88,6.84,6.84,0,0,1,.12-5.32,7,7,0,0,1,1.71-2.2,8,8,0,0,1,2.6-1.48,10.16,10.16,0,0,1,3.33-.52,10.39,10.39,0,0,1,4.36.92,10.68,10.68,0,0,1,3.4,2.32l-1.81,2.16a8.66,8.66,0,0,0-2.68-1.8,7.47,7.47,0,0,0-3.27-.68,5.69,5.69,0,0,0-3.57,1,3.3,3.3,0,0,0-1.31,2.8,3.45,3.45,0,0,0,.36,1.64,4.67,4.67,0,0,0,1,1.16,11.47,11.47,0,0,0,1.4.88c.51.24,1,.46,1.57.68l3.71,1.6a13.78,13.78,0,0,1,2.12,1.12,6.9,6.9,0,0,1,1.72,1.44,5.53,5.53,0,0,1,1.12,1.92,6.52,6.52,0,0,1,.44,2.52,6.73,6.73,0,0,1-.64,2.92,6.84,6.84,0,0,1-1.76,2.4,8.77,8.77,0,0,1-2.8,1.6A11.54,11.54,0,0,1,1382.33,854.67Z"/>
                </g>
              </g>
            </g>
          </g>
        </g>
      </g>
    </g>
    <rect class="cls-6" width="1920" height="1080"/>
    <g class="cls-3">
      <path class="cls-13" d="M1114.87,718H1219l2.93,0,16.79-25H1214v12h-23.17a22.41,22.41,0,0,0-36.65,0H1131V693h-8l-16.07,24Z"/>
      <path class="cls-10" d="M1172.26,634.36a25,25,0,1,1-25,24.95A25,25,0,0,1,1172.26,634.36ZM1154.18,705a22.06,22.06,0,0,1,36.65,0H1214V601h-20v.13a22.33,22.33,0,0,1-6.34,15.89,21.84,21.84,0,0,1-31.31,0,22.3,22.3,0,0,1-6.35-15.89V601h-19V705Z"/>
      <circle class="cls-13" cx="1172.26" cy="659.32" r="24.97"/>
      <path class="cls-13" d="M1327.72,718H1432l2.92,0,16.8-25H1427v12h-23.17a22.41,22.41,0,0,0-36.65,0H1344V693h-8l-16.07,24Z"/>
      <path class="cls-10" d="M1385.11,634.36a25,25,0,1,1-24.95,24.95A25,25,0,0,1,1385.11,634.36ZM1367.18,705a22.06,22.06,0,0,1,36.65,0H1427V601h-20v.13a22.34,22.34,0,0,1-6.35,15.89,21.83,21.83,0,0,1-31.3,0,22.3,22.3,0,0,1-6.35-15.89V601h-19V705Z"/>
      <circle class="cls-13" cx="1385.12" cy="659.32" r="24.97"/>
      <path class="cls-13" d="M1222.22,600H1327v-1l2.93,0,16.79-25H1321v12h-23.17a22.41,22.41,0,0,0-36.65,0H1238V574h-8.33l-16.73,25Z"/>
      <path class="cls-10" d="M1279.61,515.9a25,25,0,1,1-25,25A25,25,0,0,1,1279.61,515.9ZM1261.18,587a22.06,22.06,0,0,1,36.65,0H1321V483h-19v.13a22.3,22.3,0,0,1-6.35,15.89,21.84,21.84,0,0,1-31.31,0,22.33,22.33,0,0,1-6.34-15.89V483h-20V587Z"/>
      <path class="cls-13" d="M1297.27,523.21a25,25,0,1,1-35.31,0A25,25,0,0,1,1297.27,523.21Z"/>
      <path class="cls-13" d="M1113,479h104l2.93,0,16.79-25H1212v12h-23.17a22.41,22.41,0,0,0-36.65,0H1129V454h-8L1105,478Z"/>
      <path class="cls-10" d="M1170.41,395.59a25,25,0,1,1-25,25A25,25,0,0,1,1170.41,395.59ZM1152.18,466a22.06,22.06,0,0,1,36.65,0H1212V362h-20v.14a22.33,22.33,0,0,1-6.35,15.89,21.85,21.85,0,0,1-31.3,0,22.37,22.37,0,0,1-6.35-15.89V362h-19V466Z"/>
      <path class="cls-13" d="M1188.06,402.9a25,25,0,1,1-35.31,0A25,25,0,0,1,1188.06,402.9Z"/>
      <path class="cls-13" d="M1327.72,479H1432l2.92,0,16.8-25H1427v12h-23.17a22.41,22.41,0,0,0-36.65,0H1344V454h-8L1320,478Z"/>
      <path class="cls-10" d="M1385.11,395.59a25,25,0,1,1-24.95,25A25,25,0,0,1,1385.11,395.59ZM1367.18,466a22.06,22.06,0,0,1,36.65,0H1427V362h-20v.14a22.37,22.37,0,0,1-6.35,15.89,21.85,21.85,0,0,1-31.3,0,22.33,22.33,0,0,1-6.35-15.89V362h-19V466Z"/>
      <path class="cls-13" d="M1402.77,402.9a25,25,0,1,1-35.31,0A25,25,0,0,1,1402.77,402.9Z"/>
    </g>
    <g class="cls-16">
      <g class="cls-16">
        <rect class="cls-9" x="543" y="510" width="89" height="12"/>
        <polygon class="cls-10" points="632 552.02 632 522 543 522 543 564 632 564 632 552.02"/>
        <rect class="cls-9" x="643" y="510" width="89" height="12"/>
        <polygon class="cls-10" points="732 552.02 732 522 643 522 643 564 732 564 732 552.02"/>
        <rect class="cls-9" x="543" y="578" width="89" height="12"/>
        <polygon class="cls-10" points="543 619.92 543 632 632 632 632 590 543 590 543 619.92"/>
        <rect class="cls-9" x="643" y="578" width="89" height="12"/>
        <polygon class="cls-10" points="732 619.92 732 590 643 590 643 632 732 632 732 619.92"/>
        <rect class="cls-9" x="543" y="442" width="189" height="12"/>
        <polygon class="cls-10" points="732 483.33 732 454 543 454 543 495 732 495 732 483.33"/>
      </g>
    </g>
  </g>
</svg>
